<svg xmlns="http://www.w3.org/2000/svg" viewBox="0 0 439 512"><defs><style>.cls-1{fill:#a4c639;}</style></defs><title>Asset 1</title><g id="Layer_2" data-name="Layer 2"><g id="logos"><path id="Android" class="cls-1" d="M331.5,409h-224A30.35,30.35,0,0,1,77.15,378.6V172.68h284.7V378.6A30.35,30.35,0,0,1,331.5,409Zm-198.74,0v69.77A33.29,33.29,0,0,0,166.06,512h0a33.29,33.29,0,0,0,33.31-33.28V409Zm106.87,0v69.77A33.29,33.29,0,0,0,272.94,512h0a33.29,33.29,0,0,0,33.3-33.28V409ZM439,328.39V199.29A33.3,33.3,0,0,0,405.69,166h0a33.31,33.31,0,0,0-33.31,33.3v129.1a33.31,33.31,0,0,0,33.31,33.3h0A33.3,33.3,0,0,0,439,328.39ZM33.31,361.69h0a33.31,33.31,0,0,0,33.31-33.3V199.29A33.31,33.31,0,0,0,33.31,166h0A33.3,33.3,0,0,0,0,199.29v129.1A33.3,33.3,0,0,0,33.31,361.69ZM361.85,160H77.15c0-52,29.27-93.77,74.1-114.63L128,5.24a3.5,3.5,0,0,1,6.06-3.49l23.6,40.84a163.55,163.55,0,0,1,61.8-11.67,163.55,163.55,0,0,1,61.8,11.67L304.9,1.75A3.5,3.5,0,0,1,311,5.24L287.75,45.41C332.58,66.27,361.85,108.06,361.85,160ZM166.06,96.38A12.09,12.09,0,1,0,154,108.46,12.07,12.07,0,0,0,166.06,96.38Zm131.05,0A12.09,12.09,0,1,0,285,108.46,12.08,12.08,0,0,0,297.11,96.38Z"/></g></g></svg>