<svg xmlns="http://www.w3.org/2000/svg" viewBox="0 0 293 293"><defs><style>.cls-1{fill:#633f8f;stroke:#c0a0ea;stroke-miterlimit:10;stroke-width:3px;}.cls-2{fill:#fff;}</style></defs><title>Asset 6</title><g id="Layer_2" data-name="Layer 2"><g id="logos"><g id="bootstrap"><rect class="cls-1" x="1.5" y="1.5" width="290" height="290" rx="54.58"/><path class="cls-2" d="M175.9,143.51s28.73-8,30.07-39.42-26.73-42.77-44.1-42.77H87.7v172.4h78.85c16,0,48.11-16,48.11-46.11C214.66,146.5,175.9,143.51,175.9,143.51ZM109.08,82s19.36.5,42.1,0c23.38-.5,31.51,9.36,31.4,26.06-.15,24.1-24.72,26.06-24.72,26.06H109.08Zm54.77,131.75h-54.1V156.1s21.49-1.27,46.69,0c24.09,1.21,34.83,10.35,34.83,28.84C191.27,203,177.19,213.78,163.85,213.78Z"/></g></g></g></svg>