<svg xmlns="http://www.w3.org/2000/svg" viewBox="0 0 639 219"><defs><style>.cls-1{fill:#e34c32;}</style></defs><title>Asset 13</title><g id="Layer_2" data-name="Layer 2"><g id="logos"><path id="Amber" class="cls-1" d="M636.78,155.3c-6-9.5-9,4.5-35,7s0-49.49-17-55.49-35.46,34-37.46,35,1-32-1-34.49-12-3.5-17,.5-17.48,63.49-17.48,63.49c-42.45,28.49-62.93,23-66.92,11,77.41-24.49,48.94-74,34.46-78-58.93-7.5-68.42,64-68.42,64s-24.48,13-32,15.49c8.49-13,14.49-36,9.49-50.49-16.48-41-43.95-17-43.95-17,58.94-74,34-114.48,21.48-116s-28.47,1-47.45,30-30.46,152-30.46,152c-37.46,29-24.48-18-23-34s13-35-4-41.49-49.45,48.49-49.45,48.49,13-42.49,2.5-47.49c-20.48-9-52.44,50.49-52.44,50.49s5-25.5,6-41.49-16-13-22.47-9-16.49,66.49-16.49,66.49-4,8-31.46,16.49-33-8-33-8c45.95-14,77.41-57.48,31-75-50.94-10-62.93,50-61.43,56-10.49,4-13.65,1.33-23.47-3.5C1.42,155.84,0,174.8,0,174.8c4,7,19.64,7.66,33,9.49,19.48,58.49,84.41,22.5,93.9,18,0,6,6.49,18.5,19.48,16.5s35-59.49,42.95-67c-9,48.49-7,55.49,3.49,63.49s23.48-7,25.47-18.5,14.49-38,20-45c0,21.5-2,57,11.49,64s28.47-5,40-11c35,35,123.86-10.5,123.86-10.5,44.45,50,96.89,6,96.89,6s1,14,14,18,35-67.49,40-73c-1,6.5,11.66,42.16,28,39.49C639.28,178.79,642.78,164.8,636.78,155.3ZM61.46,161.74c-1.19-11.94,12.75-43.41,28.44-32.93,17.25,11.51-9.64,31.76-26.85,34.71C62,163.69,61.56,162.76,61.46,161.74ZM354.6,23.33c18-.5-23,80.48-37,92.48C317.64,115.81,336.62,23.83,354.6,23.33Zm-41,172s-4-74,41-60C365.59,144.3,370.08,205.29,313.65,195.29ZM463,125.81c9.49-4,26,30-21.48,37.49C441.5,163.3,443.5,131.3,463,125.81Z"/></g></g></svg>