<svg xmlns="http://www.w3.org/2000/svg" viewBox="0 0 598 48"><defs><style>.cls-1{fill:#c0c2c0;}</style></defs><title>Asset 8</title><g id="Layer_2" data-name="Layer 2"><g id="logos"><path id="Foundation" class="cls-1" d="M43.49,4.37c11.25,0,15.83,0,15.25,9.74-.61,10.4-16.5,11.91-41,20.64a.44.44,0,0,0,.1.86H58.74v11.5H9c-12,0-9.33-15.42-2.08-18.42,5.52-2.29,24-11,32.84-13a.53.53,0,0,0-.13-1H0V4.37Zm81.24-.5h-11.5s.5,30-.5,32.24H79.24c-1-2.25-.5-32.24-.5-32.24H67.24L67,38.53a9,9,0,0,0,9,9.08H115.9a9,9,0,0,0,9-9.08Zm69,44.13H180.47V31.5h-34V47.75H134V3.51s41.74-.08,50,0c10.57.11,10.25,9.82,10.25,14a11.89,11.89,0,0,1-6,10.49C197,28,193.72,48,193.72,48Zm-12-30.91a3.17,3.17,0,0,0-3.17-3.17h-33v6.34h33A3.17,3.17,0,0,0,181.72,17.09Zm78.24,14a40.16,40.16,0,0,1-.77,8,10.48,10.48,0,0,1-10.29,8.3H201.72v-43s28.24-.25,40.74-.25,7.25,16.24,7.25,16.24S260,20.61,260,31.11Zm-47.49-11h24.37a2.88,2.88,0,0,0,0-5.75H212.47Zm35.42,12.71A2.87,2.87,0,0,0,245,30h-31.8v5.91H245A2.88,2.88,0,0,0,247.89,33Zm36,13.7V26.75h19.42V18.88H283.89v-11h22.5V0H274.5V46.52Zm28-7.48a14.33,14.33,0,0,0,6.39,6.14,19.52,19.52,0,0,0,8.84,2.1,16.69,16.69,0,0,0,12.42-5,17.36,17.36,0,0,0,4.94-12.68A17.16,17.16,0,0,0,339.56,17a16.84,16.84,0,0,0-12.54-5,18.4,18.4,0,0,0-9,2.19,15,15,0,0,0-6.2,6.34,18.23,18.23,0,0,0-2.19,8.6A20.43,20.43,0,0,0,311.86,39Zm9.33-17a7.77,7.77,0,0,1,11.72,0c1.58,1.78,2.36,4.32,2.36,7.62s-.78,6-2.36,7.74a7.78,7.78,0,0,1-11.72,0q-2.38-2.67-2.38-7.68T321.19,22Zm58.36,24.53V12.82h-8.91V27c0,4.83-.23,7.86-.67,9.1a6.39,6.39,0,0,1-2.48,3.11,7,7,0,0,1-4.09,1.25,5.48,5.48,0,0,1-3.3-.94A4.67,4.67,0,0,1,358.31,37c-.33-1.06-.49-4-.49-8.71V12.82H348.9V34.14a18.77,18.77,0,0,0,1.2,7.46A8.86,8.86,0,0,0,354,45.79a12.4,12.4,0,0,0,6.09,1.49,13.53,13.53,0,0,0,6.33-1.56,12.93,12.93,0,0,0,4.84-4.25v5.05ZM417.1,25.58a27.68,27.68,0,0,0-.49-6,9.8,9.8,0,0,0-1.75-3.75,9,9,0,0,0-3.69-2.71,13.82,13.82,0,0,0-16.5,4.65V12.82h-8.29v33.7h8.92V31.26a29.38,29.38,0,0,1,.68-7.75,6.45,6.45,0,0,1,2.53-3.36,7.1,7.1,0,0,1,4.15-1.27,5.34,5.34,0,0,1,3.1.89,5,5,0,0,1,1.85,2.49q.57,1.6.57,7.06v17.2h8.92ZM454.71,0H445.8V16.75A12.62,12.62,0,0,0,436,12.06a13.1,13.1,0,0,0-10.18,4.46q-4,4.45-4,13,0,8.39,4.14,13.06a12.83,12.83,0,0,0,9.95,4.68,12.5,12.5,0,0,0,5.66-1.41,13.39,13.39,0,0,0,4.87-4.3v5h8.28ZM433.05,21.4a6.71,6.71,0,0,1,5.32-2.52,6.62,6.62,0,0,1,5.36,2.55c1.4,1.71,2.1,4.49,2.1,8.37q0,5.19-2.16,7.82a6.57,6.57,0,0,1-5.24,2.61,6.74,6.74,0,0,1-6-3.49q-1.48-2.4-1.49-7.8C430.91,25.6,431.63,23.08,433.05,21.4ZM470,19.82a6.3,6.3,0,0,1,3.71-.94c2.35,0,3.94.36,4.79,1.09a4.62,4.62,0,0,1,1.27,3.67v.89a49.14,49.14,0,0,1-8.66,2.19A29.52,29.52,0,0,0,464,28.8a8.88,8.88,0,0,0-3.82,3.42,9.58,9.58,0,0,0-1.36,5.1,9.43,9.43,0,0,0,3,7.14q3,2.82,8.21,2.82a14,14,0,0,0,5.55-1.11,16,16,0,0,0,4.89-3.33c.06.17.17.52.31,1,.34,1.17.63,2,.86,2.64h8.82a19.57,19.57,0,0,1-1.6-4.52,36.68,36.68,0,0,1-.43-6.56l.1-10.4q0-5.82-1.19-8a8.92,8.92,0,0,0-4.11-3.59q-2.93-1.41-8.89-1.41-6.57,0-9.9,2.35a12.57,12.57,0,0,0-4.69,7.23l8.09,1.46A6.49,6.49,0,0,1,470,19.82Zm9.77,12.29a17.73,17.73,0,0,1-.35,4.35,5.63,5.63,0,0,1-2.12,2.95A7.75,7.75,0,0,1,472.68,41a4.86,4.86,0,0,1-3.55-1.37,4.38,4.38,0,0,1-1.4-3.23,3.73,3.73,0,0,1,1.75-3.15,16.65,16.65,0,0,1,4.85-1.55,52.73,52.73,0,0,0,5.43-1.37Zm24.57-19.29V.92l-8.95,5.2v6.7h-4.09v7.11h4.09V34.62a43.07,43.07,0,0,0,.29,6.28,8.31,8.31,0,0,0,1.25,3.48,6.38,6.38,0,0,0,2.84,2.09,11.17,11.17,0,0,0,4.35.81,17.68,17.68,0,0,0,7-1.33L510.39,39a11.61,11.61,0,0,1-3.59.86,2.47,2.47,0,0,1-1.5-.45,2,2,0,0,1-.8-1.12,35.38,35.38,0,0,1-.17-4.81V19.93h6.09V12.82Zm18.86-4.57V0h-8.92V8.25Zm0,38.27V12.82h-8.92v33.7ZM530.11,39a14.3,14.3,0,0,0,6.4,6.14,19.52,19.52,0,0,0,8.84,2.1,16.69,16.69,0,0,0,12.42-5,17.36,17.36,0,0,0,4.93-12.68A17.19,17.19,0,0,0,557.82,17a16.84,16.84,0,0,0-12.54-5,18.37,18.37,0,0,0-9,2.19,15,15,0,0,0-6.21,6.34,18.23,18.23,0,0,0-2.19,8.6A20.43,20.43,0,0,0,530.11,39Zm9.33-17a7.78,7.78,0,0,1,11.73,0q2.36,2.67,2.36,7.62t-2.36,7.74a7.8,7.8,0,0,1-11.73,0c-1.58-1.78-2.38-4.34-2.38-7.68S537.86,23.77,539.44,22ZM598,25.58a27.68,27.68,0,0,0-.49-6,9.8,9.8,0,0,0-1.75-3.75,9,9,0,0,0-3.69-2.71,13.82,13.82,0,0,0-16.5,4.65V12.82h-8.29v33.7h8.92V31.26a29.38,29.38,0,0,1,.68-7.75,6.45,6.45,0,0,1,2.53-3.36,7.1,7.1,0,0,1,4.15-1.27,5.34,5.34,0,0,1,3.1.89,5,5,0,0,1,1.85,2.49q.57,1.6.57,7.06v17.2H598Z"/></g></g></svg>