<svg xmlns="http://www.w3.org/2000/svg" viewBox="0 0 432 428"><defs><style>.cls-1{fill:#323131;}</style></defs><title>Asset 3</title><g id="Layer_2" data-name="Layer 2"><g id="logos"><path id="github" class="cls-1" d="M216,428C96.71,428,0,332.19,0,214S96.71,0,216,0,432,95.81,432,214,335.29,428,216,428ZM327.7,87.07C317.42,77.27,271,106,267.88,107.94a222.67,222.67,0,0,0-53.66-7.39,222.67,222.67,0,0,0-53.66,7.39C157.48,106,111,77.27,100.73,87.07c-10.49,10-7.33,48.17-2.67,57.28-14.22,16.49-22.53,38.07-21.82,65.52,1.72,66.83,39,92.54,105.91,98.11,0,0-16.63,2.13-21.05,28.18-7.62,3.37-22.35,8.12-33.7,5.65-15.33-3.33-24-17.64-28.66-24s-25.33-30-42.67-18.3c-4.33,3.66,16.34,12.64,22.67,23.63S93,358.42,112.4,365.11c16.55,5.7,35.55,4.22,46.44,2.35-.31,47.76,3.6,47.81-9.73,50.06a218.8,218.8,0,0,0,132.55.4c-16.34-2.83-11.59,0-12.08-52.81C269.1,311.7,246.29,308,246.29,308c66.93-5.57,104.19-31.28,105.91-98.11.71-27.45-7.6-49-21.82-65.52C335,135.24,338.2,97.08,327.7,87.07Z"/></g></g></svg>