<svg xmlns="http://www.w3.org/2000/svg" viewBox="0 0 416 101"><defs><style>.cls-1{fill:#e75320;}.cls-2{fill:#f9efc2;}</style></defs><title>Asset 4</title><g id="Layer_2" data-name="Layer 2"><g id="logos"><g id="Gitkraken"><path class="cls-1" d="M24.16,16.87a1.32,1.32,0,0,0-.7,1.15A1.57,1.57,0,0,0,24,19.21a2.12,2.12,0,0,0,1.44.5,3.4,3.4,0,0,0,1.87-.58A2,2,0,0,0,28.19,18a5.64,5.64,0,0,0,.14-1.59V15.8c-.46.14-1.19.3-2.2.5A6.92,6.92,0,0,0,24.16,16.87Z"/><path class="cls-1" d="M54.43,11.76a3.21,3.21,0,0,0-2.38,1,3.89,3.89,0,0,0-1,2.82,3.86,3.86,0,0,0,1,2.82,3.38,3.38,0,0,0,4.76,0,3.93,3.93,0,0,0,.95-2.84,3.89,3.89,0,0,0-.95-2.8A3.21,3.21,0,0,0,54.43,11.76Z"/><path class="cls-1" d="M83.29,11.76a3.23,3.23,0,0,0-2.38,1,3.89,3.89,0,0,0-1,2.82,3.85,3.85,0,0,0,1,2.82,3.38,3.38,0,0,0,4.76,0,3.89,3.89,0,0,0,1-2.84,3.85,3.85,0,0,0-1-2.8A3.2,3.2,0,0,0,83.29,11.76Z"/><path class="cls-1" d="M13.4,0,5.16,26.45H111.85L120.59,0ZM29.09,21.73a9.42,9.42,0,0,1-.34-1c-.06-.2-.11-.32-.13-.39a6.52,6.52,0,0,1-2,1.23,6.29,6.29,0,0,1-2.26.4,5,5,0,0,1-3.32-1,3.44,3.44,0,0,1-.67-4.49,3.53,3.53,0,0,1,1.55-1.26,13.5,13.5,0,0,1,2.88-.76,22.65,22.65,0,0,0,3.51-.8v-.33A1.62,1.62,0,0,0,27.82,12a3.39,3.39,0,0,0-1.94-.4,2.79,2.79,0,0,0-1.51.35,2.38,2.38,0,0,0-.87,1.2l-3.29-.53A4.65,4.65,0,0,1,22.12,10a7.59,7.59,0,0,1,4-.86,9.39,9.39,0,0,1,3.61.52,3.44,3.44,0,0,1,1.66,1.31,6.08,6.08,0,0,1,.49,2.93l0,3.82A12.62,12.62,0,0,0,32,20.08a7.11,7.11,0,0,0,.65,1.65Zm13.5,0L39.81,17.9,37,21.73H32.77l4.93-6.36L33,9.37h4.42l2.42,3.4,8.51-6.62L42,15.23,47,21.73Zm16.89-1.56a7.13,7.13,0,0,1-5,1.84,8.66,8.66,0,0,1-3.58-.76A5.71,5.71,0,0,1,48.26,19a6.92,6.92,0,0,1-.88-3.61,6.22,6.22,0,0,1,.88-3.16,6,6,0,0,1,2.52-2.33,8.21,8.21,0,0,1,3.64-.8,7.24,7.24,0,0,1,5.08,1.82,6,6,0,0,1,2,4.61A6,6,0,0,1,59.48,20.17Zm13.81.62A7.46,7.46,0,0,1,68.64,22a8.29,8.29,0,0,1-4.42-1,4.78,4.78,0,0,1-2.13-2.78l3.63-.5a2.43,2.43,0,0,0,.94,1.45,3.41,3.41,0,0,0,2,.49,3.77,3.77,0,0,0,2.11-.47,1,1,0,0,0,.48-.87.84.84,0,0,0-.26-.62,3.26,3.26,0,0,0-1.21-.43,21,21,0,0,1-5.54-1.59,3.11,3.11,0,0,1-1.63-2.78A3.31,3.31,0,0,1,64,10.18a7,7,0,0,1,4.35-1.09,8.25,8.25,0,0,1,4.17.83,4.27,4.27,0,0,1,1.88,2.44L71,12.93a1.93,1.93,0,0,0-.83-1.1,3.27,3.27,0,0,0-1.75-.39,4.26,4.26,0,0,0-2,.36.76.76,0,0,0-.42.67.7.7,0,0,0,.36.59,14.9,14.9,0,0,0,3.38.92,10.67,10.67,0,0,1,4,1.46,2.9,2.9,0,0,1,1.13,2.43A3.6,3.6,0,0,1,73.29,20.79Zm15.06-.62a7.16,7.16,0,0,1-5,1.84,8.67,8.67,0,0,1-3.59-.76A5.63,5.63,0,0,1,77.13,19a6.93,6.93,0,0,1-.89-3.61,6.23,6.23,0,0,1,.89-3.16,5.89,5.89,0,0,1,2.51-2.33,8.21,8.21,0,0,1,3.64-.8,7.22,7.22,0,0,1,5.08,1.82,6,6,0,0,1,2,4.61A6.07,6.07,0,0,1,88.35,20.17ZM103.76,22a4.93,4.93,0,0,1-1.76-.29,2.61,2.61,0,0,1-1.15-.77,3,3,0,0,1-.51-1.28,14.15,14.15,0,0,1-.11-2.3V12H98.57v0h-2.3v9.79H92.65V11.94h-2V9.37h2V8.44A5.72,5.72,0,0,1,93,6.11a2.77,2.77,0,0,1,1.35-1.25,5.69,5.69,0,0,1,2.49-.49,11.08,11.08,0,0,1,3,.42L99.4,7.08a7.55,7.55,0,0,0-1.66-.19,1.59,1.59,0,0,0-1.13.33,1.79,1.79,0,0,0-.34,1.28v.87h4V6.91L103.86,5V9.37h2.47V12h-2.47v5a10.76,10.76,0,0,0,.07,1.76.69.69,0,0,0,.32.42,1.07,1.07,0,0,0,.61.16,5,5,0,0,0,1.45-.31l.31,2.54A8,8,0,0,1,103.76,22Z"/><path class="cls-2" d="M63.68,56.33H49s-3.93-9.46-17.43-9.46S12.07,60.05,12.07,71s24.21,30.91,38.77,6.08H28.2V66.46H65.9s3,34.14-33.29,34.14S.11,63.42.11,63.42,3.36,36.87,30.87,36.87,63.68,56.33,63.68,56.33Z"/><rect class="cls-2" x="74.86" y="36.87" width="10.99" height="9.84"/><rect class="cls-2" x="74.86" y="53.07" width="10.99" height="47.53"/><polygon class="cls-2" points="119.32 53.07 112.1 53.07 112.1 36.87 100.58 36.87 100.58 53.07 93.33 53.07 93.33 62.15 100.58 62.15 100.58 100.6 112.1 100.6 112.1 62.15 119.32 62.15 119.32 53.07"/><polygon class="cls-2" points="177.65 100.6 153.02 68.17 174.76 37.91 162.29 38.25 141.22 66.1 141.22 36.87 129.67 36.87 129.67 100.6 141.22 100.6 141.22 73.43 162.63 100.6 177.65 100.6"/><polygon class="cls-2" points="316.04 100.6 296.36 71.27 313.16 53.8 300.72 53.8 284.59 67.24 284.59 38 273.06 38 273.06 100.6 284.59 100.6 284.59 77.46 301.05 100.6 316.04 100.6"/><path class="cls-2" d="M195.84,58.11V52.75H184.08V100.6h11.76V72.19c2.37-10.21,12.23-9,12.23-9V51.77A14.55,14.55,0,0,0,195.84,58.11Z"/><path class="cls-2" d="M260.45,52.89H248.71v5a22.34,22.34,0,0,0-15.12-5.94c-12.77,0-23.12,10.9-23.12,24.35s10.35,24.34,23.12,24.34a22.38,22.38,0,0,0,15.12-5.93v5.93h11.74ZM231.81,89.37c-7.75-2.15-12.35-9.82-10.29-17.14s9.89-11,17.78-9.36c12.1,2.45,11,14.58,9.41,19.37S238.73,91.29,231.81,89.37Z"/><path class="cls-2" d="M361.38,66.44l-8,7.14s2.25,10.41-5.09,14.61c-9.49,5.44-15.27-.34-15.27-.34l25.29-26.34S340.16,40.94,321.66,59c-19,18.46,2.89,39.71,10.53,41.64,0,0,17.65,3.23,26.14-8.67S361.38,66.44,361.38,66.44ZM326.76,81.9s-5.41-8.83,1.72-16.48,16.91-2.18,16.91-2.18Z"/><path class="cls-2" d="M397.66,51.91s-10.93.69-13.08,6.42V53.14H373V100.6h11.56V71.26s-.22-8.59,12.1-8.56c6.83,0,7.76,8.56,7.76,8.56V100.6H416V71.26S416,51.91,397.66,51.91Z"/></g></g></g></svg>