<svg xmlns="http://www.w3.org/2000/svg" viewBox="0 0 361 333"><defs><style>.cls-1{fill:#fca326;}.cls-2{fill:#fc6d26;}.cls-3{fill:#e24329;}</style></defs><title>Asset 5</title><g id="Layer_2" data-name="Layer 2"><g id="logos"><g id="gitlab"><path class="cls-1" d="M361,197.34c0-12-21.31-68.49-21.31-68.49L180.5,333S361,208,361,197.34Z"/><polygon class="cls-2" points="245.22 128.85 180.5 333 339.69 128.85 245.22 128.85"/><path class="cls-1" d="M0,197.34c0-12,21.31-68.49,21.31-68.49L180.5,333S0,208,0,197.34Z"/><polygon class="cls-2" points="115.78 128.85 180.5 333 21.31 128.85 115.78 128.85"/><polygon class="cls-3" points="245.22 128.85 180.5 333 115.78 128.85 245.22 128.85"/><path class="cls-3" d="M288.29,3.67,247.36,128.85h92.33L298.75,3.67A5.56,5.56,0,0,0,288.29,3.67Z"/><path class="cls-3" d="M72.71,3.67l40.93,125.18H21.31L62.25,3.67A5.56,5.56,0,0,1,72.71,3.67Z"/></g></g></g></svg>