<svg xmlns="http://www.w3.org/2000/svg" viewBox="0 0 210.19 282.38"><defs><style>.cls-1{fill:#452e12;}.cls-2{fill:#f9a819;}.cls-3{fill:#f9a818;}.cls-4{fill:#e68623;}.cls-5{fill:#fdfdfd;}.cls-6{fill:#c8c7c8;}.cls-7{fill:#c8c8c9;}.cls-8{fill:#f8a718;}.cls-9{fill:#f9a718;}.cls-10{fill:#e58623;}.cls-11{fill:#e48623;}.cls-12{fill:#f6a518;}.cls-13{fill:#603d15;}.cls-14{fill:#895c15;}.cls-15{fill:#6d4417;}.cls-16{fill:#bd7f16;}.cls-17{fill:#b46b1e;}.cls-18{fill:#462e13;}.cls-19{fill:#493013;}.cls-20{fill:#945d18;}.cls-21{fill:#7f5018;}.cls-22{fill:#805316;}.cls-23{fill:#462f13;}.cls-24{fill:#fdfdfc;}.cls-25{fill:#c6c6c7;}</style></defs><title>Asset 9</title><g id="Layer_2" data-name="Layer 2"><g id="logos"><path class="cls-1" d="M2.3,25.77c6.55-9.23,15.42-13.6,26-14.63C45.44,9.48,58.19,17.64,69,29.9c.74.84,1.46,1.7,2.16,2.57.84,1.05,1.45,2.3,3.26,1.82S76,32.34,76.13,31c.64-7.94,4.14-14.51,9.62-20.12a22.74,22.74,0,0,1,2.87-2.39c2-1.48,3.22-1.67,3.31,1.5.11,4.05.1,8.22,3.6,12.15C97.82,10,106,4,117,0c-1.77,6.93-1.8,13.44,1.28,20.05,5.52-3.92,10.72-8.31,17.94-8,.3,1.67-.75,2.72-1.27,3.93-1.85,4.39-3.45,8.83-3.34,13.68,0,1.65-.33,3.46,2.14,4.13,2.23.61,3.69.73,5.42-1.4,8.42-10.37,18.22-19,32.07-20.87s26,1.33,35.23,12.51c.38.47.93.86.7,1.88-4.91,1.11-10,1.95-14.65,4.53-7.9,4.44-10.07,9.62-7.83,18.4.39,1.53.95,2,2.41,2.08a23.66,23.66,0,0,1,4.41.76c9.6,2.41,14.35,10.3,12,19.89a32.91,32.91,0,0,1-4.4,9.85c-4.9,7.59-3,15.53-1,23.38.49,2,2.71,2.84,4.27,4.06,9.94,7.87,10.58,19.55,1.49,28.39-5.26,5.12-11.75,8.36-18.16,11.67-5.36,2.77-8.46,7.29-8.84,13-.81,12.16.24,24.29,1.58,36.53,6-3.7,11.37-12.67,13.58-22.64,1.56-.25,2.09,1.1,2.88,1.95,14.81,15.9,14.14,53.58-13.93,65.15a9.56,9.56,0,0,0-5,4.53c-7.44,13.25-18.39,21.71-33.67,24a6.6,6.6,0,0,0-3.09,1.17c-11.65,8.67-25.05,10.43-39,9.69-10.64-.56-20.64-3.21-29.28-9.84a5.73,5.73,0,0,0-2.75-1c-15.29-2.25-26.28-10.65-33.73-23.91a9.52,9.52,0,0,0-5-4.59c-28.2-11.4-29-49.73-13.62-65.66.58-.61,1.23-1.15,2.2-2.05,1.22,4.81,2.49,9.18,4.87,13.09a38.07,38.07,0,0,0,8.91,10.61c1.33-12.78,2.36-25,1.7-37.33a5.19,5.19,0,0,0-.2-1.1c-1.34-5-3.82-9.08-8.67-11.54C18.84,146,13.18,143.09,8.26,139c-4-3.34-7.27-7.25-8-12.62-1-7,1-13.07,7-17,4.91-3.22,6.32-7.63,6.5-13,.21-6.13.56-12.22-4-17.3a13.49,13.49,0,0,1-2-4c-4.85-12.19.39-21.81,13.35-23.89,3.15-.5,4.3-1.54,4.72-4.63,1-7.46-.64-11.41-7-15.43C13.93,28,8.32,27,2.3,25.77Z"/><path class="cls-2" d="M133.29,75.37l-5.5,7.93c2.28.39,3.23-1.15,4.38-2,9-6.68,18.2-13.06,28.61-17.39a59.1,59.1,0,0,1,24.65-5,17,17,0,0,1,5.48,1c4,1.51,5.71,4.66,4.84,8.87A24.19,24.19,0,0,1,190.57,79c-1.62-.17-.41-2.07-1.85-2.66-1.76,4.8-1.6,9.89-2.34,14.81.24,10.85-1.13,22,5.46,31.72,1.72,2.54.86,4.44-1.32,6.07a38.56,38.56,0,0,1-11.86,6.23c-10,2.91-14.07,9.89-15,19.56-.15,1.53.46,4.33-1.77,4.2s-2.41-2.76-2.29-4.22c.7,10.25-.58,21.21,1.67,32,1,4.63,1.93,9.26,3.23,13.81.46,1.62,1.39,3.29.26,5a6.77,6.77,0,0,1-3.69.8c-3.47,1.12-5.85-.12-7.85-3.08-6.1-9.05-12.44-17.94-17.55-27.62l-3-6c-.46-.16-.46-.85-1-.9.26.83-.47,1.71.15,2.51,2.26,14.94,6.66,29.31,11.88,44h-6.44c-22.55,0-45.09,0-67.64.12-3.06,0-2.91-.91-2.07-3.18a238.17,238.17,0,0,0,11.32-42.49c.48-1.55.48-1.55-.75-1.43l-4.35,9c-5,9-11,17.27-16.66,25.83-2,3.07-4.09,4.4-7.58,3.36a8.22,8.22,0,0,1-4.32-.92,4.22,4.22,0,0,1,.11-3.27c4.32-14.71,5.77-29.78,5.55-45.06a16.06,16.06,0,0,1,.44-3.7,20.36,20.36,0,0,1-1.13,3.82c-.43.85-.72,2.08-2,1.83-1.09-.22-1.5-1.29-1.61-2.31a57.68,57.68,0,0,0-1.06-7.39c-1.45-6.09-4.65-10.59-10.82-12.77A58.39,58.39,0,0,1,20,129.22c-3.51-2.51-3.75-3.48-1.34-7A25.82,25.82,0,0,0,22.45,113c1.86-8.45,1.81-17,1-25.55-.94-4.21-.64-8.67-2.81-13.37-.18,2.14-.3,3.62-.42,5.1-3.52-4-6.64-8.26-5.84-14,.46-3.28,2.93-4.8,5.85-5.53,6.87-1.73,13.59-.41,20.24,1.3,13.66,3.53,25,11.34,36.23,19.48,1.71,1.24,3.39,2.51,5.69,4.22-1.28-4.29-4.31-6.64-6-9.8-3.71-5.47-6.28-11.58-9.63-17.26-2-3.33-2.51-7,0-10.56,8.74-4.56,18.26-6.39,27.91-7.21,15.62-1.32,31-.05,45.79,5.76a28.25,28.25,0,0,1,2.63,1.34c2.72,3.55,2.09,7.29.13,10.75C139.9,63.56,137.27,69.85,133.29,75.37Z"/><path class="cls-3" d="M62.18,248.22c-2.78-5-5.17-10.21-5.32-16.09-.12-4.4,1.46-6.67,5.55-8.29,3.79-1.5,7.81-1.53,11.78-1.55q30.8-.1,61.61,0c3.83,0,7.73,0,11.43,1.4,4.83,1.78,6.93,5.13,6,10.19a40.17,40.17,0,0,1-4.95,13.57c-6.41,9.17-16.24,12.52-26.38,14.79a75.89,75.89,0,0,1-39.47-1.49C74.66,258.35,67.29,255.07,62.18,248.22Z"/><path class="cls-4" d="M23.45,87.43c1.19,6.32,2,12.68,1.15,19.1s-1.89,13-6.59,18.22c-1.23,1.37.44,2.2,1.38,2.87a52,52,0,0,0,14.81,7.73c9.56,3,12.18,10.45,13.14,19.19.16,1.4-.6,3,1.11,4.28l2.66-7.19c1.1,18.39.07,36.42-6,53.85-5.49-.87-5.72-1.12-5.1-6.63a280.47,280.47,0,0,0,1.45-35.37c-.13-9.79-4.22-17.13-13.13-21.7-4.74-2.44-9.51-4.9-13.64-8.36-6.6-5.53-6.78-13.7-.39-19.22,1-.24,1.15.48,1.22,1.22.48.57-.92,2.27,1.13,1.9C21.88,108,23.8,98,23.45,87.43Z"/><path class="cls-4" d="M164.73,205.55c-5.64-17.24-6.93-35-5.71-53.47.95,2.44,1.76,4.49,2.85,7.24.79-4.25,1.37-7.79,2.11-11.29a15.68,15.68,0,0,1,10.73-12.25,71.11,71.11,0,0,0,15-7.41c2.19-1.43,3-2.81,1.11-5.33-3.79-5-5.22-11-5.12-17.16.08-4.91-.92-9.88.66-14.73.68,8.9,2.17,17.59,6.69,25.48a3.44,3.44,0,0,1,1.29,1.74c-.3-3.1-.26-3.3,1-4.78,7,6.21,6.86,14-.35,20.07-4.13,3.45-8.93,5.87-13.69,8.3-8.53,4.37-12.42,11.62-12.82,20.82-.53,12.2.56,24.36,1.42,36.52C170.32,204.62,170.21,204.63,164.73,205.55Z"/><path class="cls-4" d="M62.18,248.22a55.92,55.92,0,0,0,30,13.75c18.17,2.48,35.6.9,51.09-10.17,1.81-1.29,3.39-2.89,5.07-4.35-7,15.77-19.12,24.84-36.14,26.77-12.6,1.44-24.84-.11-35.5-8A42,42,0,0,1,62.18,248.22Z"/><path class="cls-5" d="M161,228c-1-4-4.1-6.72-6.4-9.91-1.44-2-1.11-2.62,1.34-2.73a55.28,55.28,0,0,0,17.7-3.91,35,35,0,0,0,19.51-17.85c2.15.44,1.72,2.21,1.59,3.53-1.59,16-9.08,28.24-26.3,32.79-1.21.32-2.46.38-3.66.69C162.44,231.19,161.35,230.19,161,228Z"/><path class="cls-5" d="M17.32,194.36c7.46,14.45,20.65,19.17,35.56,21,1.17.14,2.86-.53,3.37.79s-.92,2.21-1.68,3.12c-2.54,3.08-5.12,6.11-5.8,10.23-.78,1.67-2.2,1.27-3.55,1.1a34.19,34.19,0,0,1-29.71-35.07C15.55,194.27,15.38,192.63,17.32,194.36Z"/><path class="cls-6" d="M161,228c.77,1.25,1.38,1.95,3.36,1.69,15.65-2.07,26.86-13.16,28.79-29,.29-2.36,1.71-4.76,0-7.13-.09-.8.16-1.73.82-1.9,1.24-.32,1.23.94,1.39,1.67,5.18,24.14-5.84,43.61-32.77,46-1.58.14-2.79.06-2-2.12C161.6,234.2,161.15,231.08,161,228Z"/><path class="cls-7" d="M17.32,194.36c-.4,0-1.17-.54-1.13.21.56,9.5,2.67,18.55,9.71,25.45,6.26,6.13,13.75,9.94,22.87,9.46a27.16,27.16,0,0,0,.73,7.78c.54,1.72-.23,2.06-1.85,2.11-17.38.53-32.8-13.62-34-31.26-.51-7.67,0-12.3,1.85-16.59C17,191.91,17.1,193.19,17.32,194.36Z"/><path class="cls-8" d="M19.16,21.68c12.68-4.23,23.71-3.14,33.58,5.17a54.16,54.16,0,0,1,8.38,9c.72,1,2.41,2.45.19,3.18-1.79.59-3.48,4.16-5.86.77C50.29,32.44,43.8,26.94,34.75,25a22.66,22.66,0,0,0-7.42-.4C24.35,25,22,23.89,19.16,21.68Z"/><path class="cls-9" d="M190.52,22a10.6,10.6,0,0,1-7.94,2.64c-11.82-.78-20.33,5.12-27.19,14.06-1.71,2.24-6,2.25-7.48-.06-.44-.7-.07-1.16.28-1.65,10.05-14.08,23-21.59,41.05-15.79A6.45,6.45,0,0,1,190.52,22Z"/><path class="cls-10" d="M176,31.27c1.37.09,2.76.16,1.88,1.87-2.26,4.37-1.65,9.25-2.67,13.84-.48,2.17-.77,4.38-3.55,5.14s-4.74.55-7.17-1.72c-3.2-3-2.9-5.47-1.15-8.78C166.18,36.27,170.1,32.45,176,31.27Z"/><path class="cls-10" d="M30.94,31.08c8.19.12,16,7,17.38,14.63.41,2.37-1.82,2.7-2.58,4.12-1.75,3.28-4.47,3.2-7.5,2.24-3.2-1-3.2-3.82-3.61-6.32C33.83,40.79,34.23,35.57,30.94,31.08Z"/><path class="cls-10" d="M66.77,47c-1.68,5.63.66,10.13,3.51,14.82,2.47,4.06,4.89,8.29,6.14,13C69.74,68,62.81,61.46,54.06,57.26c-2.06-1-1.36-2-.13-3A40.12,40.12,0,0,1,66.77,47Z"/><path class="cls-10" d="M133.29,75.37a87.25,87.25,0,0,1,7.56-15.17c2.67-4.24,3.75-8.47,2.25-13.29a38.46,38.46,0,0,1,13.38,7.78c.83.76,1.82,1.56,0,2.41C147.27,61.33,140,68.05,133.29,75.37Z"/><path class="cls-11" d="M135.64,175.65q7.83,11.63,15.67,23.24a38.09,38.09,0,0,1,2.75,3.93c1.5,3,3.84,4,7,3.53-3.45,1.25-7.12.82-10.65,1.38-1.78.28-2.41-.93-2.93-2.26Z"/><path class="cls-10" d="M49.44,206.4c3.14.35,4.89-1,6.72-3.75,5.21-7.93,10.64-15.71,15.7-23.75.47-.75.86-1.51,1.82-1.69L62.46,205.87a2.44,2.44,0,0,1-2.8,1.86C56.26,207.27,52.76,207.54,49.44,206.4Z"/><path class="cls-12" d="M166.44,247.33c-4.45,6.09-9,10.63-16.5,13.16a62,62,0,0,0,5.92-10.81,2.2,2.2,0,0,1,2-1.42C160.42,248,163,247.71,166.44,247.33Z"/><path class="cls-12" d="M44,247.92c10.47-2.53,12,5.68,15.69,12.64C52.54,257.81,48,253.25,44,247.92Z"/><path class="cls-13" d="M195.39,113.59c-.87,2.21-.87,2.21-.21,5.83a5.72,5.72,0,0,1-2.11-2.79c1.12-.74.67-1.89.8-2.9C194.16,111.59,194.8,112.75,195.39,113.59Z"/><path class="cls-14" d="M131.73,171.25c-1-1.18-.61-2.54-.68-4a2.34,2.34,0,0,1,1.55,2.38C131.89,170,131.92,170.66,131.73,171.25Z"/><path class="cls-15" d="M16.66,117.32c-.24.66-.68,1.87-1.13,1.56-1-.67-.17-1.95-.28-3,.13-.36.33-.42.61-.16A1.84,1.84,0,0,0,16.66,117.32Z"/><path class="cls-16" d="M78,168.25c0-.57.16-1.52.8-1.14,1.12.66.78,1.71,0,2.57Z"/><path class="cls-17" d="M15.86,115.75l-.61.15a2,2,0,0,0-.94-1.7c.33-.48.9-1.24,1.28-.76S15.79,115,15.86,115.75Z"/><path class="cls-1" d="M38.44,112.68l-.57-5.16c-2,2.09-1.54,4.29-2.14,6.16-4.17-3.8-4.2-9.91.05-16.05l-3.39-1.3c-.6-.45-1.49-.82-.52-1.74,13.75-3.67,24.93,2.15,35.52,9.79a54.77,54.77,0,0,1,9.16,8.67c3.66,4.2,8.63,6,14.23,5.82,1.22.53,2.84-1.39,3.63.17.67,1.36-.32,2.9-1.17,4.14-1.52,2.21-3.49,4.14-6.13,4.57-3.15.51-4,2.26-4.48,5.08-.81,4.43-2.59,8.53-6.14,11.59-1.88-.82-.91-2.33-.7-3.48a20.11,20.11,0,0,0,0-8.14c-.46-2-1.29-2.71-3.4-1.73-10.26,4.78-19.16,1.33-27.33-5C40.83,122.75,39.41,117.75,38.44,112.68Z"/><path class="cls-18" d="M178.22,94.86c.82.65.8,1.16-.25,1.49-.59.18-1.17.4-1.77.54-1.56.37-1.93.78-.86,2.43,3.12,4.8,2.83,9.21-.65,14.67-.63-2.24-1.21-4.32-1.83-6.51-1.06.65-.63,1.53-.71,2.27C170,124.57,160.1,133.47,146,133.28a17.94,17.94,0,0,1-8.19-2.18c-1.94-1-3-.35-3.54,1.67A13.75,13.75,0,0,0,134,139c.31,1.57.69,3.21-.6,4.59-4.07-2.69-5.13-7.06-6-11.37-.48-2.26-1.06-3.58-3.59-4.25-4.62-1.21-7.77-4.16-8.45-9.62l4.47.55a20.1,20.1,0,0,0,14.24-6.2,71.59,71.59,0,0,1,14.71-12.51,41.6,41.6,0,0,1,17.73-6.34C170.37,94.1,174.41,93.12,178.22,94.86Z"/><path class="cls-10" d="M133.35,143.61c-.06-4.27-1.54-8.58.42-12.82.67-1.44.86-2.61,3.07-1.38,11.83,6.53,28.06.45,33-12.26.94-2.4,1.54-4.93,2.29-7.4-.69,14.09-7.06,26.91-20.9,29.67a38.12,38.12,0,0,1-8.53.28c-2,0-2.19.65-2,2.38.43,3.52,1.86,6.65,3.75,10.43C139.41,150.51,135.16,148.65,133.35,143.61Z"/><path class="cls-10" d="M38.44,112.68C41.5,123.11,48.2,129.61,59,131.79c4.93,1,9.68.69,13.92-2.15,2.24-1.49,2.79-.61,3.55,1.42,1.68,4.49.21,8.91,0,13.36-1.87,4.38-6.1,5.69-10.34,8,1-3.64,2.57-6.51,3.16-9.76.5-2.75-.4-2.93-2.53-2.92a37.2,37.2,0,0,1-10.31-.94C44.88,135.59,38.68,122.59,38.44,112.68Z"/><path class="cls-10" d="M90.78,118.87c-6.62,1.67-11.51-1.31-15.71-5.94-8.94-9.86-19.46-16.8-33-18.45-3.52-.43-6.92.09-10.36.51a.57.57,0,0,1-.86-.24c13.9-7.54,37-3.26,46,12.76C80,113.14,84.23,117.41,90.78,118.87Z"/><path class="cls-10" d="M165.46,94.86c-12.34,2-21.9,8.79-30.12,17.77-3.11,3.4-6.64,5.92-11.28,6.63-1.46.23-2.94.55-4.32-.35,6.61-2,11-6.64,14.23-12.36,8-14,27.44-18,41.67-13.61a7.39,7.39,0,0,1,1.8,1.23C173.49,95.16,169.41,93.84,165.46,94.86Z"/><path class="cls-11" d="M90.71,94.88a9.31,9.31,0,0,1-2.6-4.16c11.26,3.93,22.43,3.8,34,.2-1.29,1.82-1.81,3.75-3.67,4.74-4.77,2.24-9.68,3.64-15,3.27a23.33,23.33,0,0,1-9.24-2.19C93.09,96,92.35,94.61,90.71,94.88Z"/><path class="cls-19" d="M93.7,95.63a27.54,27.54,0,0,0,21.91.28c.84-.34,1.8-1.71,2.87-.25l-1.94,1.74c-9.13,8.12-15,7.92-23.77-.85C92.66,95.82,92.89,95.43,93.7,95.63Z"/><path class="cls-20" d="M165.46,94.86c3.91-1.61,8-.38,12-.69l.78.69Z"/><path class="cls-21" d="M93.7,95.63l-.93.92-2.06-1.67C92.08,93.63,92.81,95,93.7,95.63Z"/><path class="cls-22" d="M30.84,94.75l.86.24.69,1.34a2.3,2.3,0,0,1-2.36-1S30.56,94.93,30.84,94.75Z"/><path class="cls-23" d="M117,235.31c0-3.48,2.27-4.4,5.19-4.42,5.59,0,11.19-.09,16.78,0,5.83.07,7.13,1.89,5.48,7.38-1.44,2.74-2.63,5.59-5,7.79-6.05,5.72-12.83,5.19-17.89-1.46A28.84,28.84,0,0,1,117,235.31Z"/><path class="cls-23" d="M66.09,239.08c-2.3-6.45-1.06-8.19,5.94-8.22,5.32,0,10.65-.08,16,0,4.05.1,4.9,1.13,4.89,5.19a25.54,25.54,0,0,1-5.47,9.63c-5.6,6.7-13.41,4.67-17.93-.88A21.58,21.58,0,0,1,66.09,239.08Z"/><path class="cls-10" d="M117,235.31a51,51,0,0,0,6.68,10.25c3.91,4.33,9.38,4.67,13.89.95,2.82-2.32,4.71-5.4,6.88-8.25A23.72,23.72,0,0,1,138.5,250c-5.56,6.17-14.68,4.05-18.72-4.39A26.53,26.53,0,0,1,117,235.31Z"/><path class="cls-10" d="M66.09,239.08c2,2.36,3.79,5,6.06,7,4.79,4.37,10.07,3.93,14.43-.79,2.56-2.77,4.23-6.13,6.3-9.23-.5,6.17-2.75,11.58-7.6,15.54a8.5,8.5,0,0,1-9.44,1C70.22,249.92,67.2,245.14,66.09,239.08Z"/><path class="cls-24" d="M48,105.94c0-1.56.16-2.84,2.26-1.54,7.38,4.55,14.52,9.38,20.25,16,.86,2.7-1.54,2.42-2.79,2.74C58.46,125.52,45.17,119.47,48,105.94Z"/><path class="cls-25" d="M48,105.94c.5,9.5,3.88,14.55,11.55,16.19,3.69.8,7.74,1.49,11-1.73,3.07,3.48,3,3.82-1.31,5.16-6.55,2-12.83,1.27-17.73-3.62C47.06,117.58,46.52,111.84,48,105.94Z"/><path class="cls-5" d="M139.22,121c5.64-6.93,12.94-11.76,20.41-16.43,1.81-1.13,2.36-.48,2.64,1.24a18.13,18.13,0,0,1,.14,5.55,16.25,16.25,0,0,1-21.35,11.52C140.19,122.52,139,122.39,139.22,121Z"/><path class="cls-25" d="M139.22,121c9.26,4.33,18.21.61,23.19-9.64.12,5.61-1.64,10.16-6.89,13a17.59,17.59,0,0,1-17.12.17C135.72,123.1,138.57,122.07,139.22,121Z"/></g></g></svg>