<svg xmlns="http://www.w3.org/2000/svg" viewBox="0 0 438 307"><defs><style>.cls-1{fill:#9b9b9b;}</style></defs><title>Asset 2</title><g id="Layer_2" data-name="Layer 2"><g id="logos"><path id="ios" class="cls-1" d="M117,89.08s27-23,58.48-13.5,36,25.65,36,25.65-29.24,31-25.87,71.53,37.11,52.64,37.11,52.64-28.11,82.33-58.48,81-25.86-18.9-47.23-16.2-33.74,20.28-51.73,16.21S-1.11,228.1,0,175.46,24.76,45.89,117,89.08ZM159.71,0C99,24.29,111.35,73.3,111.35,73.3,122.58,77.77,173.21,48.59,159.71,0ZM266.18,133.17h-15v89.08h15Zm0-27h-15v18h15Zm96.72,60.39c.19,33.54-17.36,63.58-42,63.78s-42.54-29.54-42.73-63.08,17.34-66.28,42-66.48S362.71,133,362.9,166.56Zm-13.5.35c0-26-10.47-47.24-28.87-47.24s-28.86,21.19-28.86,47.24,9.91,46.25,28.31,46.25S349.4,193,349.4,166.91ZM433,133.73V112s-53.43-25-60.61,21.69c-6,38.9,26.75,31.3,38.54,39.79s11.41,19.68,7.48,29.07-28.7,9.39-46.9-6.71v21.47s40.84,23.46,61.49-9.84C449.09,181.57,422,159.13,413.17,157c-14.59-3.58-25.64-11.24-25.44-20.12C388.11,120.31,406.29,112.71,433,133.73Z"/></g></g></svg>