<svg xmlns="http://www.w3.org/2000/svg" viewBox="0 0 678.05 168"><defs><style>.cls-1{fill:#0868ac;}.cls-2{fill:#131b28;}</style></defs><title>Asset 11</title><g id="Layer_2" data-name="Layer 2"><g id="logos"><g id="jquery"><path class="cls-1" d="M41.2,103.9C-2.85,71.35,14.57,29.72,14.57,29.72S-6.4,54.36,2,79.51c11.08,33.27,36.57,52,68.26,49.5,26.82-2.1,38.23-15.64,47.87-30.43C118.1,98.58,82.15,134.15,41.2,103.9Z"/><path class="cls-1" d="M63.62,73.19C34.25,52.13,44.7,20.7,44.7,20.7a40.37,40.37,0,0,0-6.54,38.67c6.8,20.31,22.36,29.5,41.7,31.24,15.52,1.4,33.25-5.33,41.24-23.53C121.1,67.08,91.87,93.45,63.62,73.19Z"/><path class="cls-1" d="M82.15,45.71c-16.31-10-10.4-32.91-10.4-32.91s-7.42,14.9-5.91,21.89C68.5,47,81.35,55.86,89.84,57.05c7.62,1.07,20.94.71,28.26-12C118.1,45.05,103.93,59.11,82.15,45.71Z"/><path class="cls-2" d="M200.38,45H178.59a1.56,1.56,0,0,1-1.49-1.93l4.15-17.33a1.53,1.53,0,0,1,1.48-1.19h21.8A1.55,1.55,0,0,1,206,26.48l-4.14,17.33A1.54,1.54,0,0,1,200.38,45Z"/><path class="cls-2" d="M135.08,152.77l5.33-23.54h8.18a9.1,9.1,0,0,0,8.84-6.91l17-68.6a1.56,1.56,0,0,1,1.52-1.19h22.25a1.56,1.56,0,0,1,1.52,1.93L184.05,123c-.08.31-3.31,19.93-14,26.12C156.42,157,135.48,152.77,135.08,152.77Z"/><path class="cls-2" d="M316.21,20.34C303-3.2,271.34-3.53,248.25,5.42,221.33,15.85,207.34,57.72,211,83s17.82,30.53,32.66,32.19,65.32.49,69.28,0c2.77-.34,6.36-21.88,6.36-21.88l-13-.33S329.72,44.42,316.21,20.34ZM283.86,87.26a9.08,9.08,0,0,1-8.38,6C241.88,94.77,234,87,238,62.43c3.63-21.87,17.55-44.16,43.55-37.29C303.35,30.9,288.55,72.58,283.86,87.26Z"/><path class="cls-2" d="M342.92,25h19.33a2.31,2.31,0,0,1,2.23,2.9c-3,11.81-13.5,56.57-8.79,62.67,2.35,3.05,15.68,3.05,23.07,2.92a5.21,5.21,0,0,0,5-4.3c2.36-13.06,9.52-52.35,11.38-59.67A6.21,6.21,0,0,1,401.23,25h14.15A3.68,3.68,0,0,1,419,29.47L400.49,116H351.64a10.77,10.77,0,0,1-3.38-.54c-4-1.36-13.55-5.47-16.95-14.93-4.94-13.76,6-62,8.66-73.19A3,3,0,0,1,342.92,25Z"/><path class="cls-2" d="M473.75,23.1C419.5,20,414.2,86.51,421.81,103.39c8.32,18.45,57.25,13.18,69.64,12a3.8,3.8,0,0,0,3.39-3l2.22-10.72c2.16-9,.84-9-6.81-8.15-3.83.44-9.43.17-17.49.13-23.38-.14-28.48-2.56-28.36-11.81a3.83,3.83,0,0,1,3.69-3.8c10.66-.35,42.8,1.06,52.58.89a3.84,3.84,0,0,0,3.63-2.86C516,31.93,498.66,24.52,473.75,23.1ZM482,58.67l-33.74-.79s2.39-14.78,19.85-14.79C485,43.09,483,53.37,482,58.67Z"/><path class="cls-2" d="M531.51,24.82a3.55,3.55,0,0,0-3.37,2.79c-3.31,14.92-19.11,86.88-16.88,87.89,2.5,1.13,23,0,23,0s12.48-65.3,15-67.78c2.11-2.1,41-1.71,52.93-1.54A2.85,2.85,0,0,0,605,42.7c-1.34-5.81-4.87-15.83-11.35-17.79C587.68,23.13,543.14,24.44,531.51,24.82Z"/><path class="cls-2" d="M581.16,53.38h24.17a1.12,1.12,0,0,1,1.07.81l3.31,11.38a1.11,1.11,0,0,0,2,.33l37.17-54.41a1.13,1.13,0,0,1,.92-.48h27.14a1.12,1.12,0,0,1,.9,1.79L618.41,93.85a1.16,1.16,0,0,0-.18.37l-5.42,19.94a1.13,1.13,0,0,1-1,.83l-25.4,1a1.12,1.12,0,0,1-1.13-1.4l5.37-21.52a1.14,1.14,0,0,0,0-.58l-10.53-37.7A1.12,1.12,0,0,1,581.16,53.38Z"/><path class="cls-1" d="M315.17,142.8h5.07l0,13.77,4.45-10.36c1.75-4.07,2.08-3.41,6.67-3.41l-4.48,8.94c-1.15,2.28-2.93,8.62-5.06,10.07a7.75,7.75,0,0,1-3.86.11c-2.11-.91-.72.38-1.34-2.45-.77-3.47,0-7.89-.05-11.48-1.32,3.08-4.87,18.26-10.79,13.93-2.44-1.8-1.44-15.45-1.7-19.12,4.34,0,5.08-1.12,5.39,3,.27,3.54,0,7.18.05,10.74Z"/><path class="cls-1" d="M344.19,142.38c-.22,1.07-.24,2.9-.8,3.8-1.17,1.87.05.28-1.71,1.24-3.6,2-4.59,1.34-5.94,6.16-.46,1.67-.4,6.24-1.59,7.54s-3.09.8-5.2.8l2.87-13.53c1.14-5.39.38-5.59,5.95-5.59l-.7,3.34C339,143.82,341.07,142.21,344.19,142.38Z"/><path class="cls-1" d="M346.06,142.8h5.07l-2.87,13.53c-1.17,5.56-.47,5.59-6.25,5.59Zm5.56-2.27h-5.07c1.08-5.05.91-4.62,6.06-4.62Z"/><path class="cls-1" d="M352.18,146.54c.94-4.45,2.29-2.35,3.85-5.58,1.84-3.81.61-3.31,5.65-3.31L360.54,143c1-.21,2.11.17,3.11,0-.14.67-.16,2.47-.64,3s-1.23.12-1.67.56-1.2-.25-1.59.2-.44,2.27-.65,3c-.89,3.16-3.4,8.92,1.29,8.61-.53,2.46-.28,2.9-2,3.78-3.55,1.8-5.89-1-6.05-3.84-.22-3.56,1.75-8.24,2.5-11.76A13.14,13.14,0,0,0,352.18,146.54Z"/><path class="cls-1" d="M380.17,146c.57,1.28,1.34,6.67,0,7.74-.39.3-1.82-.1-2.3,0-2.58.5-7.55-1.29-9.79,0-2.58,1.48-.19,5.07,3,4.64,1.75-.24,2.5-1.71,4-2.08a19.48,19.48,0,0,1,4.25,0c-2.88,8.71-17.85,8.38-17.4-1.76C362.3,147.1,375.49,135.06,380.17,146Zm-12.28,4.44c1.24,0,6.92.78,7.64,0C377.71,148,370.09,144,367.89,150.45Z"/><path class="cls-1" d="M394.78,161.92h-5l3.59-16.87c.4-1.88.51-6.75,1.74-8.21,1.09-1.28,3.14-.77,5.16-.77Z"/><path class="cls-1" d="M417,146c.58,1.28,1.34,6.67,0,7.74-.39.3-1.82-.1-2.3,0-2.58.5-7.56-1.29-9.79,0-2.58,1.48-.2,5.07,3,4.64,1.76-.24,2.51-1.71,4-2.08a19.57,19.57,0,0,1,4.26,0c-2.88,8.71-17.86,8.38-17.4-1.76C399.11,147.1,412.3,135.06,417,146Zm-12.28,4.44c1.25,0,6.93.78,7.64,0C414.53,148,406.91,144,404.7,150.45Z"/><path class="cls-1" d="M422.73,155.81c-.42,4.54,9,3.41,6.13-.39-2.6-3.47-12.4-.24-8.51-8.39,2.11-4.4,10.35-6.82,14.24-3.34,3.62,3.25.54,6.67-3.46,4.94-1.24-.54-1-3.75-4.25-2.42-2.56,1.06-1.82,2-.42,3.21,3.31,2.85,12.37,1.67,7.47,9.26-2.59,4-10.88,5.66-14.62,2.4C414.11,156.54,419.11,155.81,422.73,155.81Z"/><path class="cls-1" d="M441.67,155.81c-.42,4.54,9,3.41,6.13-.39-2.6-3.47-12.41-.24-8.51-8.39,2.1-4.4,10.35-6.82,14.23-3.34,3.62,3.25.54,6.67-3.45,4.94-1.25-.54-1-3.75-4.25-2.42-2.56,1.06-1.83,2-.42,3.21,3.3,2.85,12.37,1.67,7.46,9.26-2.58,4-10.87,5.66-14.61,2.4C433.05,156.54,438,155.81,441.67,155.81Z"/><path class="cls-1" d="M454.27,166.07a5.42,5.42,0,0,0,3.93-4.15c-1,.16-2.08-.24-3,0,1.17-5.56.86-5.23,6.5-5.23-.9,4.25-1.93,11.31-7.8,11.31A11.4,11.4,0,0,1,454.27,166.07Z"/><path class="cls-1" d="M489.18,145.22c.46-2.15.49-6.12,1.67-7.88s2.66-1.23,5.33-1.23L492.61,153c-.4,1.87-.51,6.76-1.74,8.19-1.07,1.26-3,.78-5,.78.28-.83.2-1.86.56-2.65-6.33,7.48-14.26,1-12.17-7.36C475.46,147,485.54,136.46,489.18,145.22Zm-1.44,7.42c1.61-7.65-6.56-7-8.28-.93C477.14,159.84,486.26,159.73,487.74,152.64Z"/><path class="cls-1" d="M502.65,162.58c-13.82,0-7.16-20.48,4.35-20.39C520.77,142.3,514.19,162.58,502.65,162.58Zm6.7-10.18c1.72-8.08-7.85-6.77-9.11,0C498.72,160.56,507.91,159.13,509.35,152.4Z"/><path class="cls-1" d="M553.82,144.59c1.77,3-.76,9.44-1.43,12.59-1.12,5.17-.82,4.74-6.15,4.74.69-3.25,1.5-6.49,2.07-9.76.15-.87,1-3.36.55-4.2-1.67-2.91-4.78-.57-5.92,1.39-1.48,2.51-1.42,6.63-2.1,9.4-1,4.06-1.45,3.17-5.7,3.17.69-3.28,1.51-6.55,2.08-9.84.17-1,1-3.09.5-4-1.53-2.8-4.64-.92-5.86,1-1.55,2.43-1.48,6.93-2.15,9.67-1,4.1-1.45,3.2-5.75,3.2l2.87-13.51c1.16-5.43.42-5.57,6-5.57-.3.86-.19,2-.6,2.79,2.46-2.95,9.66-5.6,10.72,0C545.34,142.68,551.31,140.51,553.82,144.59Z"/><path class="cls-1" d="M563.39,162.58c-13.82,0-7.16-20.48,4.35-20.39C581.51,142.3,574.93,162.58,563.39,162.58Zm6.7-10.18c1.73-8.08-7.84-6.77-9.1,0C559.47,160.56,568.65,159.13,570.09,152.4Z"/><path class="cls-1" d="M591.05,142.38c-.23,1.07-.25,2.9-.81,3.8-1.16,1.87,0,.28-1.7,1.24-3.61,2-4.6,1.34-5.94,6.16-.47,1.67-.4,6.24-1.59,7.54s-3.1.8-5.21.8l2.87-13.53c1.14-5.39.39-5.59,6-5.59l-.71,3.34C585.81,143.82,587.92,142.21,591.05,142.38Z"/><path class="cls-1" d="M607.16,146c.58,1.28,1.34,6.67,0,7.74-.39.3-1.82-.1-2.29,0-2.58.5-7.56-1.29-9.8,0-2.58,1.48-.19,5.07,3,4.64,1.75-.24,2.5-1.71,4-2.08a19.48,19.48,0,0,1,4.25,0c-2.87,8.71-17.85,8.38-17.39-1.76C589.29,147.1,602.48,135.06,607.16,146Zm-12.28,4.44c1.24,0,6.92.78,7.64,0C604.7,148,597.08,144,594.88,150.45Z"/><path class="cls-1" d="M608.75,156.69h5.31c-1.16,5.52-.82,5.23-6.42,5.23Z"/></g></g></g></svg>