<svg xmlns="http://www.w3.org/2000/svg" xmlns:xlink="http://www.w3.org/1999/xlink" viewBox="0 0 558.64 341.91"><defs><style>.cls-1{fill:#699f64;}.cls-2{fill:#343434;}.cls-3{fill:#333;}.cls-4{fill:#689f63;}.cls-5{fill:url(#linear-gradient);}.cls-6{fill:url(#linear-gradient-2);}.cls-7{fill:url(#linear-gradient-3);}.cls-8{fill:url(#linear-gradient-4);}.cls-9{fill:url(#linear-gradient-5);}</style><linearGradient id="linear-gradient" x1="145.83" y1="93.52" x2="260.36" y2="135.03" gradientTransform="translate(1.22 13.64) rotate(3.92)" gradientUnits="userSpaceOnUse"><stop offset="0" stop-color="#3e863d"/><stop offset="0" stop-color="#3e863d"/><stop offset="0.07" stop-color="#599854"/><stop offset="0.14" stop-color="#6ea665"/><stop offset="0.22" stop-color="#7daf71"/><stop offset="0.32" stop-color="#86b579"/><stop offset="0.47" stop-color="#89b77b"/><stop offset="0.56" stop-color="#76ab6c"/><stop offset="0.74" stop-color="#589752"/><stop offset="0.89" stop-color="#458a43"/><stop offset="1" stop-color="#3e863d"/></linearGradient><linearGradient id="linear-gradient-2" x1="260.54" y1="134.97" x2="287.65" y2="88.01" gradientTransform="translate(1.22 13.64) rotate(3.92)" gradientUnits="userSpaceOnUse"><stop offset="0" stop-color="#76ac67"/><stop offset="0.34" stop-color="#619e58"/><stop offset="1" stop-color="#3e863d"/></linearGradient><linearGradient id="linear-gradient-3" x1="209.85" y1="82.3" x2="270.42" y2="82.3" gradientTransform="translate(1.22 13.64) rotate(3.92)" gradientUnits="userSpaceOnUse"><stop offset="0" stop-color="#3e863d"/><stop offset="0.66" stop-color="#619e58"/><stop offset="1" stop-color="#76ac67"/></linearGradient><linearGradient id="linear-gradient-4" x1="155.18" y1="152.12" x2="219.66" y2="152.12" gradientTransform="translate(1.22 13.64) rotate(3.92)" gradientUnits="userSpaceOnUse"><stop offset="0" stop-color="#3e863d"/><stop offset="0.4" stop-color="#40883f"/><stop offset="0.62" stop-color="#488d44"/><stop offset="0.8" stop-color="#56964e"/><stop offset="0.95" stop-color="#6aa35c"/><stop offset="1" stop-color="#72a962"/></linearGradient><linearGradient id="linear-gradient-5" x1="138.04" y1="147.53" x2="167.6" y2="96.32" gradientTransform="translate(1.22 13.64) rotate(3.92)" gradientUnits="userSpaceOnUse"><stop offset="0.13" stop-color="#72a962"/><stop offset="0.67" stop-color="#4f9149"/><stop offset="1" stop-color="#3e863d"/></linearGradient></defs><title>Asset 10</title><g id="Layer_2" data-name="Layer 2"><g id="logos"><path class="cls-1" d="M273,341.91c-6.12-3.61-12.25-7.21-18.36-10.85-.71-.42-1.87-.73-1.85-1.59,0-1.15,1.39-1,2.17-1.37a36.77,36.77,0,0,0,4.22-1.93,4.24,4.24,0,0,1,5.29.1c3.24,2.12,6.69,3.93,10,6a3,3,0,0,0,3.61,0q24.15-14,48.36-27.9a3.44,3.44,0,0,0,1.92-3.37q0-27.83,0-55.66a3.29,3.29,0,0,0-1.83-3.19q-24.21-13.9-48.36-27.9a3.36,3.36,0,0,0-3.83,0q-23.94,13.89-48,27.66a3.9,3.9,0,0,0-2.2,3.9q.09,27.38,0,54.73a3.8,3.8,0,0,0,2.18,3.91c3.83,2.05,7.53,4.33,11.3,6.47a18.69,18.69,0,0,0,3.37,1.56c5.76,1.89,9.95-1.12,10-7.18,0-8.85,0-17.7,0-26.55,0-9.4.06-18.79,0-28.18,0-2.21.65-3.17,2.92-2.94a20.1,20.1,0,0,0,3.72,0c2-.18,2.76.71,2.74,2.7-.06,7.37,0,14.75,0,22.12q0,16.42,0,32.84a27.51,27.51,0,0,1-.55,6c-1.81,8.17-9.09,12.49-18.07,10.77a29.28,29.28,0,0,1-8.85-3.43c-3.92-2.21-7.8-4.48-11.7-6.72a11,11,0,0,1-6-10.27q.08-28.41,0-56.83a11,11,0,0,1,5.9-10.3q24.7-14.19,49.37-28.47a11,11,0,0,1,11.71,0q24.48,14.13,49,28.26a11.49,11.49,0,0,1,6.23,10.85q-.1,28.07,0,56.13a11.38,11.38,0,0,1-6.11,10.69q-24.3,14-48.56,28l-3.12,1.84Z"/><path class="cls-2" d="M412.63,100.92c0,25,0,50,.05,75a8.72,8.72,0,0,1-4.88,8.45q-25.53,14.57-50.93,29.38a7.72,7.72,0,0,1-8.5,0q-25.9-15.08-51.9-30a7.23,7.23,0,0,1-3.89-6.85q.06-30,0-60.08a7.23,7.23,0,0,1,4-6.82q26.1-15,52.15-30.06a7.11,7.11,0,0,1,7.86,0c3.73,2.22,7.51,4.35,11.27,6.51,3.46,2,4.84,1.22,4.84-2.74v-78c0-.62,0-1.24,0-1.86C372.75.42,375-.94,378,.68c4.15,2.25,8.26,4.59,12.39,6.89,5.81,3.24,11.58,6.59,17.47,9.69,3.42,1.8,4.86,4.36,4.85,8.22C412.59,50.63,412.63,75.77,412.63,100.92Zm-40.18,46h0c0-3.26,0-6.52,0-9.78a2.81,2.81,0,0,0-1.64-2.77q-8.29-4.69-16.49-9.53a3.17,3.17,0,0,0-3.64,0q-8.19,4.85-16.5,9.51a3,3,0,0,0-1.7,3q.09,9.54,0,19.08a3.12,3.12,0,0,0,1.82,3.14q8.2,4.59,16.3,9.39a3.17,3.17,0,0,0,3.65.07q8.21-4.83,16.49-9.53a3,3,0,0,0,1.72-3C372.4,153.28,372.45,150.1,372.45,146.92Z"/><path class="cls-3" d="M119.83,155.69v39.59c0,5.19-1.94,6.33-6.4,3.78-9.62-5.49-19.2-11.05-28.88-16.45A8.07,8.07,0,0,1,80,174.72c.13-11.87,0-23.75.09-35.63,0-3.75-1.35-6.31-4.71-8.06-3.84-2-7.56-4.26-11.28-6.49a7.28,7.28,0,0,0-8.1,0c-3.78,2.28-7.59,4.53-11.48,6.6A7.75,7.75,0,0,0,40,138.79c.12,12,0,24.06.07,36.09a7.84,7.84,0,0,1-4.34,7.57C25.88,188,16.09,193.68,6.27,199.29c-4,2.27-6.15,1-6.16-3.66q0-40-.11-80.11a7.69,7.69,0,0,1,4.22-7.38q25.73-14.7,51.37-29.55a7.9,7.9,0,0,1,8.71-.07C81.12,88.28,98,98,114.89,107.57c3.72,2.09,5.18,4.77,5.12,9-.19,13-.07,26.08-.07,39.12ZM554.76,109q-25.63-14.85-51.24-29.77a7.67,7.67,0,0,0-8.49,0q-25.83,15-51.73,29.86a7.35,7.35,0,0,0-4,7q.09,29.92,0,59.84a7.46,7.46,0,0,0,4.15,7.17q25.57,14.49,51.08,29.12a8,8,0,0,0,8.71.1c9.84-5.58,19.74-11,29.63-16.52,1.44-.8,2.92-1.53,3-3.51s-1.53-2.86-3-3.71q-25.6-14.67-51.23-29.33a4.87,4.87,0,0,1-2.8-4.84c.12-5.66.1-11.33,0-17a4.49,4.49,0,0,1,2.61-4.47q7.51-4.17,14.9-8.59a4.37,4.37,0,0,1,5,0q7.5,4.44,15.1,8.71a4.21,4.21,0,0,1,2.37,4.14q-.09,6.75,0,13.5c0,3.66,2.43,5,5.58,3.21q15.5-8.94,31-18a6.26,6.26,0,0,0,3.36-4.22l0-18.08C558.23,111.38,556.63,110.11,554.76,109Z"/><path class="cls-1" d="M291.75,302a41.65,41.65,0,0,1-15.53-2.48c-6.69-2.64-10.46-7.48-11.09-14.71-.18-2.06.53-3.14,2.72-2.93a11.22,11.22,0,0,0,1.16,0c4.75,0,4.78,0,6.29,4.4a8.3,8.3,0,0,0,6,5.62,41.73,41.73,0,0,0,19.81.19,9,9,0,0,0,3.15-1.45,6.43,6.43,0,0,0,2.66-6.1c-.15-2.38-1.86-3.44-3.85-4.16-5.09-1.84-10.46-2.08-15.76-2.75A51,51,0,0,1,276,275.25c-4.75-1.76-8.24-4.75-9-10-.79-5.76.57-10.82,5.47-14.46,4.06-3,8.78-4.09,13.73-4.46a42.07,42.07,0,0,1,17.44,1.91c6.87,2.46,10.3,7.58,11.22,14.64.23,1.81-.51,2.64-2.31,2.58a6.53,6.53,0,0,0-1.17,0c-3.55.48-6.12-.14-7.08-4.38-.68-3-3.43-4.56-6.37-5.19a37.34,37.34,0,0,0-15.47-.06,8.32,8.32,0,0,0-3.56,1.66,5.71,5.71,0,0,0-2.08,5.61c.28,2,1.84,2.79,3.51,3.31,4.16,1.3,8.49,1.75,12.78,2.39,4.67.71,9.36,1.28,13.87,2.8,5.22,1.75,9.09,4.77,9.75,10.63.74,6.63-1.24,12.13-7.13,15.78C304.16,301.38,298,302,291.75,302Z"/><polygon class="cls-4" points="487.06 139.67 487.06 154.07 498.95 161.27 510.83 154.07 510.83 139.67 498.95 132.47 487.06 139.67"/><path class="cls-5" d="M143.14,114.65l.33,63.6a3.49,3.49,0,0,0,1.85,3.07l59,31.3a3.48,3.48,0,0,0,3.33,0l58.69-32.66a3.48,3.48,0,0,0,1.79-3.06l-.33-63.61a3.46,3.46,0,0,0-1.85-3.06L207,78.9a3.48,3.48,0,0,0-3.34,0l-58.69,32.65A3.49,3.49,0,0,0,143.14,114.65Z"/><path class="cls-6" d="M268.12,177l-.33-63.85a3.3,3.3,0,0,0-1.81-2.91l-18.16,34.06,20.3,32.7"/><polyline class="cls-7" points="207.08 78.96 247.82 144.28 265.67 110.06 207.08 78.96"/><path class="cls-8" d="M207.78,212.51l-41-67.31-21.47,36.1"/><path class="cls-9" d="M145.28,181.3l21.47-36.1-20.37-34.42-1.46.81a3.37,3.37,0,0,0-1.78,3l.33,63.84"/></g></g></svg>