<svg xmlns="http://www.w3.org/2000/svg" viewBox="0 0 404.84 362"><defs><style>.cls-1{fill:#60dafb;}</style></defs><title>Asset 16</title><g id="Layer_2" data-name="Layer 2"><g id="logos"><g id="React"><path class="cls-1" d="M0,185.73v-9.58c4.62-20.5,18.9-33,35.87-43.26C49.35,124.75,64,119.3,78.94,114.62c4.09-1.28,5.73-3.18,4.59-7.66A201.4,201.4,0,0,1,77.87,70.1c-.93-14.45,0-28.75,5.35-42.41C89.5,11.59,101,1.85,118.5.19c9.09-.86,17.79,1.34,26.18,4.58,20.61,8,37.69,21.28,53.62,36.17,3.39,3.17,5.28,3.05,8.52-.08a191.21,191.21,0,0,1,24.34-20.08C245.32,11,260.1,2.47,277.59.46c15.59-1.79,28.67,3.07,38.13,16,9,12.29,11.09,26.65,11.64,41.3.61,16.54-2,32.78-5.79,48.82-1.09,4.58.21,6.69,4.62,8.08,7.44,2.35,14.81,5,22.05,7.93,16.59,6.67,31.81,15.46,44.12,28.78,15.09,16.33,16.65,36.08,3.85,54.2C391,213,384.3,218.86,376.89,224c-14.73,10.16-31.06,16.88-48,22.34-8.46,2.74-8.46,2.64-6.64,11.61,3.83,18.82,6.82,37.71,4.18,57-2.15,15.74-6.74,30.21-20.53,40-5.65,4-12.25,5.22-18.67,7h-8.62c-15.81-2.8-30.1-9.23-43.36-18.13a227.93,227.93,0,0,1-29.39-23.72c-2.55-2.4-4.17-2.36-6.74,0C178,339.51,155.69,356.84,126.39,362h-8.61c-1.23-.35-2.43-.79-3.67-1-14.36-2.71-23.93-11.29-29.82-24.35-4.75-10.52-6.29-21.72-6.64-33.1-.51-16.7,2.32-33,5.92-49.27.88-4-.3-5.92-4.16-7a176.38,176.38,0,0,1-31.69-12.07C26,224.37,6.23,211.55,0,185.73Zm202.79-69.8c-10,0-20.07,0-30.1,0-5.06,0-8.47,2.15-11.28,6.53A576,576,0,0,0,130.71,176a9.87,9.87,0,0,0,0,9.86,610.59,610.59,0,0,0,30.41,53.12c3,4.72,6.62,6.94,12,7,7.65.08,15.31.15,23,.55,12.92.67,25.78-.55,38.67-.9,3.7-.1,6.07-2,8.08-5a547.35,547.35,0,0,0,31.54-54.68,9.87,9.87,0,0,0,0-9.86,582.61,582.61,0,0,0-31-53.91c-2.76-4.3-6.2-6.15-11-6.16C222.54,115.92,212.66,115.94,202.79,115.93Zm-108,183.88c.36,11,1.12,22,6.45,32,4.37,8.25,11.32,12.4,20.47,12.61A35.81,35.81,0,0,0,132,343c22.23-6.22,39.25-20.6,55.6-36,2.38-2.24,1.22-4.29-.54-6.21a374,374,0,0,1-28.77-35.73,7.78,7.78,0,0,0-5.84-3.62,419,419,0,0,1-45.81-7c-3.87-.83-5.59.53-6.4,4.21A217.86,217.86,0,0,0,94.74,299.81Zm215.55-.12c-.38-13.74-2.59-27.24-5.4-40.68-.88-4.2-2.85-5.42-7.07-4.5A394.65,394.65,0,0,1,253,261.38a8.68,8.68,0,0,0-6.58,4.11,345.3,345.3,0,0,1-28.19,35c-2.6,2.8-2.58,5,.24,7.67A204.14,204.14,0,0,0,245.56,330c10.28,6.89,21.13,12.48,33.62,14.2,10.87,1.49,19.86-3.1,24.92-12.86C309.25,321.4,310,310.6,310.29,299.69ZM17.42,181.4c.2,1.14.4,2.89.84,4.57,2.13,8.28,7.45,14.39,13.92,19.5C47.81,217.83,66,225.1,84.79,230.92c3.65,1.13,5.21-.41,6.29-3.69a391.85,391.85,0,0,1,16.46-42.31,9.21,9.21,0,0,0-.09-8.25A388.09,388.09,0,0,1,91.18,134.8c-1.37-4.26-3.65-5-7.57-3.65A239.55,239.55,0,0,0,59.89,140c-12.07,5.51-23.77,11.67-33.15,21.37C21.49,166.81,17.91,173.06,17.42,181.4Zm365.73-14a48.28,48.28,0,0,0-10.36-11.17C357.11,144,339,136.7,320.16,130.83c-3.34-1-5,.28-6.07,3.41A424.92,424.92,0,0,1,297.45,177a8.77,8.77,0,0,0,0,7.8,381.09,381.09,0,0,1,16.61,42.76c1.16,3.56,3.18,4.43,6.52,3.26,5.56-1.95,11.23-3.62,16.7-5.81,14.85-5.94,29.27-12.72,40.74-24.32,5.4-5.45,9.15-11.84,9.59-20m-77.32-119c-.39-11-1.14-21.92-6.58-31.95-3.58-6.59-8.94-10.68-16.38-12-7.19-1.24-14,.45-20.59,3-18.53,7.12-33.64,19.3-48,32.62-3.34,3.09-2.87,5.46-.11,8.41a359.58,359.58,0,0,1,28.2,35,7.65,7.65,0,0,0,5.85,3.59,360.22,360.22,0,0,1,45.39,6.95c4,.89,5.9-.36,6.76-4.33A229,229,0,0,0,310.29,61.71ZM94.75,61.63a233.13,233.13,0,0,0,5.33,40.94c.92,4.38,2.84,5.75,7.34,4.74a352.56,352.56,0,0,1,44.92-6.89,6.81,6.81,0,0,0,5.28-2.79A383.82,383.82,0,0,1,187,61.08c2.45-2.65,2.28-4.8-.36-7.32-11.37-10.84-23.56-20.58-37.42-28.07a67.31,67.31,0,0,0-23.4-8c-10.91-1.42-19.89,3.17-24.93,13S95.13,51.06,94.75,61.63Zm44.32,57.79q-14.7,1.8-29.15,5c-2.64.58-3.33,2.12-2.55,4.57,2.95,9.26,6.42,18.32,10.11,27.3,1,2.37,2.24,3.31,3.75.41,6.13-11.7,12.8-23.1,19.82-34.29C142.51,120.05,141.57,119.18,139.07,119.42Zm127.29,0c-.83.18-2.17-.63-2.82.65s.46,2.1,1,3c6.59,10.87,13.13,21.78,19,33.08.49.95.85,2.33,2.2,2.2s1.58-1.49,2-2.5q4.92-13.17,9.78-26.38c1-2.75.48-4.54-2.73-5.22C285.42,122.33,276,120.68,266.36,119.45Zm-129,123c2.05-.31,3.62.61,4.3-.93.49-1.11-.55-2.08-1.14-3-6.69-10.49-12.72-21.37-18.68-32.28-.59-1.08-.87-2.72-2.37-2.73s-1.85,1.62-2.27,2.74c-3.24,8.66-6.39,17.35-9.59,26-1,2.84-.27,4.65,2.83,5.22Zm129.43.17,27.73-5.06c3-.54,4.16-2.11,3.06-5.1q-4.87-13.23-9.75-26.47c-.38-1-.74-2.34-2-2.48s-1.73,1.23-2.24,2.17c-6.09,11.21-12.28,22.36-19.14,33.11-.57.9-1.65,1.89-.86,3S265.6,242.27,266.74,242.61ZM221.17,98.33c.66-.14,2.42.64,3.3-.76,1-1.59-.68-2.62-1.52-3.64C217.18,86.92,211.3,80,205.54,73c-2.19-2.68-4-2.49-6.13.09C193.65,80.09,187.79,87,182,94c-.78.94-2.14,1.9-1.6,3.25.68,1.68,2.48,1.21,3.81,1.09A229.08,229.08,0,0,1,221.17,98.33Zm-34.29,165c-2.29.38-5-.93-6.12,1-1.18,2.1,1.44,3.57,2.66,5.08,5.2,6.45,10.61,12.74,15.83,19.18,2.25,2.77,4.13,3,6.46.07,5.62-6.94,11.39-13.75,17.06-20.65.85-1,2.46-2.08,1.64-3.65s-2.58-1-3.94-.93C209.17,264.09,197.88,264.86,186.88,263.34Z"/><path class="cls-1" d="M238.51,180.92a35.92,35.92,0,0,1-36,36.35c-20.08,0-36-16.07-36-36.37a36,36,0,1,1,72,0Z"/></g></g></g></svg>