<svg xmlns="http://www.w3.org/2000/svg" viewBox="0 0 351.26 334.06"><defs><style>.cls-1{fill:#764abc;}</style></defs><title>Asset 15</title><g id="Layer_2" data-name="Layer 2"><g id="logos"><g id="Reedux"><path class="cls-1" d="M253.89,334.06c-7.12-1-14.38-1.39-21.32-3.1-10.95-2.7-21.68-6.27-32.5-9.47l0-1.49c5.86-4.74,11.68-9.55,17.66-14.13.75-.57,2.53-.26,3.62.17a112,112,0,0,0,47.12,8c38.9-2.08,63.58-35.19,62.59-65.32-.56-17-7.21-32.11-16.51-46-20-30-49-47.44-82.52-58.25a159.67,159.67,0,0,0-52.69-7.37c-3.6.08-5.83,1-7.83,4.27a24,24,0,0,1-27.76,10.27c-10.53-3.28-17.13-12.42-17.09-23.65s6.8-20,17.6-23.25a23.85,23.85,0,0,1,26.29,9c2,2.77,4.11,3.62,7.35,3.55,36.78-.78,71.39,7.27,102.93,26.58,25.63,15.7,46.54,36.11,59.78,63.55a97,97,0,0,1,9.6,35.61,40.08,40.08,0,0,0,1,5.15v7.09a42.13,42.13,0,0,0-1.1,5.12c-1.06,11.18-4.09,21.71-10.39,31.07-14.61,21.71-35.46,34-60.59,39.57-6.56,1.45-13.31,2.06-20,3.05Z"/><path class="cls-1" d="M265.08,108.79c-7.1-2.12-13.34-3.72-19.34-6-1.38-.51-2.57-3.06-2.82-4.82a117.44,117.44,0,0,0-16.19-44.53C218.91,40.62,208.89,30,194.67,24.13c-13.16-5.46-26.42-4.22-39.82-.7-24.51,6.46-40.36,22.48-50.93,44.83C94.12,89,91,110.82,91.4,133.55c.53,27.55,7.78,53.12,20.74,77.27,1.82,3.4,3.6,5.15,8,5.11,12.8-.09,23,10.36,23.81,22.65.94,14.67-9.7,24.79-21.2,26-13.74,1.47-25.23-7-26.95-20.31-.57-4.45,1-9.15,1.43-13.75.18-2,.59-4.49-.31-6.08-14.11-25-23.43-51.57-25.66-80.14-2.72-35,2.93-68.61,22.28-98.66C109.39,21.08,131.68,5.1,161,.87c25.68-3.7,48,4.56,66.85,22.16,18.42,17.23,28.57,39,33.63,63.41C263,93.59,263.83,100.88,265.08,108.79Z"/><path class="cls-1" d="M50.88,157.77c1.86,6.89,3.79,13.46,5.28,20.14.22,1-1.46,2.59-2.57,3.56-15.37,13.46-27.54,29.08-33.07,49.15C10,268.81,36.48,307,75.67,311.55c35.1,4.09,65.53-7,94.12-25.86,21.42-14.14,38.88-31.91,51.37-54.47,1.67-3,1.93-5.15-.35-8.19a23.73,23.73,0,0,1,.26-28.8,24.54,24.54,0,0,1,28.13-8.3c10.11,3.78,16.37,13.51,15.85,24.65-.48,10.27-7.92,19.15-18.08,22.19a9.93,9.93,0,0,0-5.5,4.18c-26.81,50.95-68.79,81.47-124.79,93.22-25.26,5.3-49.82,3.38-73.22-8C18.71,310.11,4.89,289.92,1.1,263-4.19,225.22,9.83,194.58,36.8,169c3.84-3.64,8.13-6.82,12.22-10.19A18.21,18.21,0,0,1,50.88,157.77Z"/></g></g></g></svg>