<svg xmlns="http://www.w3.org/2000/svg" viewBox="0 0 554 416"><defs><style>.cls-1{fill:#cd6799;}</style></defs><title>Asset 12</title><g id="Layer_2" data-name="Layer 2"><g id="logos"><g id="Sass"><path class="cls-1" d="M0,165.32c.32-1.86.61-3.73,1-5.59A95.16,95.16,0,0,1,11.5,131.84a162,162,0,0,1,23.3-31.77A256.66,256.66,0,0,1,76.57,64a378.81,378.81,0,0,1,53.09-31,430.9,430.9,0,0,1,55-22.38,221.58,221.58,0,0,1,41.05-9A198,198,0,0,1,255.42.06c15.63.42,31,2.53,45.83,7.71,10.19,3.57,19.69,8.42,28,15.48A53.76,53.76,0,0,1,348.1,56.64c2.52,15.85-.14,31-6.1,45.68a124.52,124.52,0,0,1-20.87,33.83,143.33,143.33,0,0,1-49.21,37.71,192.19,192.19,0,0,1-36.44,12.28,198.33,198.33,0,0,1-30.18,4.78,154.23,154.23,0,0,1-19.1.42c-10.13-.42-20.17-1.57-29.67-5.47s-17.9-9.55-24.27-17.84a24.79,24.79,0,0,1-4.67-10.26,4.67,4.67,0,0,1,.19-2.72,2.65,2.65,0,0,1,4.17-1.27,14.13,14.13,0,0,1,2.26,2c6.26,7.14,14.37,11.16,23.28,13.78a76.13,76.13,0,0,0,19.8,3c14.31.36,28.22-2.15,42-5.79a168,168,0,0,0,45.66-19.62,148.94,148.94,0,0,0,23.64-18,114.49,114.49,0,0,0,21.25-26.32,67.81,67.81,0,0,0,9-25.56,38.21,38.21,0,0,0-2.17-18.94c-2.67-6.81-7.84-11.29-14-14.79-8.32-4.73-17.42-7-26.79-8.45A122.51,122.51,0,0,0,256,33.7,198.36,198.36,0,0,0,213.36,39a278.48,278.48,0,0,0-56.21,19.8,421.15,421.15,0,0,0-49.24,27.39,253.82,253.82,0,0,0-28.5,21.29c-10.82,9.42-20.57,19.79-27.9,32.24a70.6,70.6,0,0,0-9.62,27.82c-1.69,14.38,2.32,27.12,10.79,38.65,6,8.21,13.33,15.19,21.05,21.76,11.12,9.46,23,18,34.33,27.16a191.2,191.2,0,0,1,19.25,17.51,2,2,0,0,0,2.84.42q18.43-10.17,36.92-20.26,7.85-4.29,15.7-8.55a5,5,0,0,0,1.56-1.52c8.84-11.77,19.52-21.42,32.73-28.06,5-2.52,10.31-4.26,16.06-4.2,8.07.09,13.87,4.4,16.28,12.13,1.72,5.54,1.69,11.2,1.26,16.89-.15,2-.49,4-.76,6.14a2.88,2.88,0,0,0,1.48-.84,8.75,8.75,0,0,1,6.79-2.17,13.85,13.85,0,0,1,8,3.17,6.84,6.84,0,0,1,2.17,7.3c-1.46,5.78-3,11.53-4.53,17.3-3.39,12.82-6.83,25.62-9.22,38.68a45.83,45.83,0,0,0-.46,13.93c.06.45,0,1,.5,1.21s.88-.39,1.18-.76a35.09,35.09,0,0,0,3.68-6.19c7-13.43,13.21-27.27,19.37-41.11s12.38-27.67,18.46-41.55c3.66-8.33,7.6-16.55,10.56-25.17a108.6,108.6,0,0,0,3.26-12.17A6.5,6.5,0,0,1,316,192a52.65,52.65,0,0,1,23.13-1.77,9.81,9.81,0,0,1,5.67,2.67,3.86,3.86,0,0,1,1.07,4.39c-1.84,5.43-3.71,10.84-5.08,16.42-1.72,7-1.68,14-1,21.18.81,8.6,3.94,16.28,7.92,23.74.17.32.24.82.63.86s.58-.52.78-.85q11.13-18.3,21.19-37.22c3.6-6.82,7.08-13.7,10-20.85a58.06,58.06,0,0,0,2.59-9.05c.95-4.05,2.14-8,3.45-12a5.3,5.3,0,0,1,2.95-3.29,28.84,28.84,0,0,1,8.4-2.23c5.55-.77,11.12-1.21,16.67-.12a8.92,8.92,0,0,1,5.91,3.29,3.54,3.54,0,0,1,.55,3.39c-1.53,4.6-3.08,9.2-4.44,13.86-2.48,8.49-2.64,17-1.52,25.78a59.13,59.13,0,0,0,6.37,19.5c1.66,3.25,3.31,6.51,4.92,9.79.4.82.76,1.08,1.68.64a110.68,110.68,0,0,1,36.72-10.45c14.9-1.6,29.61-.72,43.93,4A71.62,71.62,0,0,1,538.18,262c8.3,8.67,13.81,18.82,15.4,30.84,1.67,12.69-1.54,23.84-11,32.83a39.56,39.56,0,0,1-13.36,8.49,11.1,11.1,0,0,1-4.08.63,2.22,2.22,0,0,1-2.38-1.5,2.25,2.25,0,0,1,1-2.77c1.48-1,3-2,4.46-3.05a35,35,0,0,0,9.4-9.3,26,26,0,0,0,3.56-22.37c-3-10.76-9.53-18.85-18.61-25-8.78-6-18.63-9.25-29-11.17a127,127,0,0,0-28.4-1.9,95.43,95.43,0,0,0-30.8,6.28c-1.67.65-1.64.65-1,2.43a60.3,60.3,0,0,1,4,19.05,31.13,31.13,0,0,1-6.5,19.77,67.24,67.24,0,0,1-31.26,23c-3.84,1.43-7.63,3-11.74,3.67a13.11,13.11,0,0,1-15.46-11.64c-.74-6.3.85-12.22,3-18,3-8.1,7.9-15.12,13.38-21.74A112.08,112.08,0,0,1,403,266.21c1.55-1.3,1.55-1.3.63-3.15a156,156,0,0,1-7.22-15.59,166,166,0,0,1-6.84-26c0-.17-.08-.34-.13-.56a3,3,0,0,0-.9,1.42,455.34,455.34,0,0,1-28.95,49.83c-.8,1.18-1.57,2.39-2.45,3.52a2.38,2.38,0,0,0-.29,2.68,77.11,77.11,0,0,1,4.91,15.42c2,10.09,1.06,19.79-4,28.89a43,43,0,0,1-15.76,15.83,75.73,75.73,0,0,1-32,11.17,36.49,36.49,0,0,1-10.89-.22,15.79,15.79,0,0,1-2.27-.6c-5-1.81-7.14-6.06-5.71-11.17,1-3.44,3.18-6.13,5.3-8.86,7.37-9.48,15.31-18.5,23-27.73,4.08-4.9,7.76-10.1,11.55-15.22a1.73,1.73,0,0,0,.13-2c-2.5-5.15-5.05-10.29-7.42-15.5-4.31-9.49-6.5-19.62-8.62-29.76-.06-.26-.12-.52-.18-.83-.6.1-.6.58-.74.92Q306.4,258,297.87,277c-5.59,12.39-11.68,24.52-18,36.55-4.2,8-8.58,15.84-12.92,23.73a59.76,59.76,0,0,1-11.73,15.16,19.9,19.9,0,0,1-8.64,5.06c-5.55,1.4-11.3-1.53-14.26-7.3-2.19-4.27-3-8.91-3.44-13.63a94,94,0,0,1,.78-21.13.87.87,0,0,0-.23-.74c-.81,1.93-1.62,3.87-2.44,5.8-4.65,10.93-9.45,21.79-15.43,32.07a28.93,28.93,0,0,1-9.16,10.23c-4.08,2.63-8.6,2.8-13.23,2.41-7-.6-11.22-5.11-14.66-10.62-5.94-9.54-9-20.07-10.77-31.08-1.62-10.23-.49-20.35,1-30.47a110.51,110.51,0,0,1,5.09-21c.08-.24.26-.51,0-.81-.64-.06-1.1.37-1.61.64-9.48,5.1-18.72,10.61-28,16-.74.43-1,.78-.55,1.62,3.61,7.2,5.3,14.93,6.16,22.89a99.35,99.35,0,0,1-3,37.2,87.67,87.67,0,0,1-19.2,35.53,93.11,93.11,0,0,1-29,22.18,83.69,83.69,0,0,1-28.59,8.23c-2,.21-4,0-5.93.46h-3.6a8.41,8.41,0,0,0-1.22-.21,80.54,80.54,0,0,1-13.57-1.68,23.36,23.36,0,0,1-14.65-9c-7.46-9.41-10-20.31-9-32,1.29-14.59,7.24-27.18,17.27-37.85A155,155,0,0,1,55,317.75a317.6,317.6,0,0,1,47.25-29.07c1.85-.95,3.66-2,5.5-2.95.72-.38.7-.7.07-1.18s-1.34-1.13-2-1.69c-8.85-7.15-18.31-13.45-27.64-19.92-12.41-8.6-24.8-17.23-36.35-27a174.85,174.85,0,0,1-23-22.81A90.51,90.51,0,0,1,3,185.85a84.57,84.57,0,0,1-3-11.38ZM124.66,315.89a78.64,78.64,0,0,0-2.47-17.82c-.26-1-.55-1.16-1.48-.62-15,8.71-29.47,18.17-42.84,29.26-7.8,6.47-14.86,13.57-19.68,22.63-3.59,6.73-6,13.79-6,21.51a18.86,18.86,0,0,0,.71,5.07c1.52,5.58,5.38,8.45,11.53,8.72a38.73,38.73,0,0,0,16.2-3,68.05,68.05,0,0,0,27.79-20.71A69,69,0,0,0,124.66,315.89Zm66.56-7.23c.1,1.61.2,3.22.27,4.84a47.55,47.55,0,0,0,2,12.26,11.38,11.38,0,0,0,2.69,4.95,2.51,2.51,0,0,0,3.27.48A8.65,8.65,0,0,0,202,328.9c3.61-4.54,6-9.78,8.23-15,5.19-12,9.83-24.24,14.37-36.5a277,277,0,0,0,10.13-32.24,36,36,0,0,0,1.34-9.3,3.13,3.13,0,0,0-3.35-3.39,10.06,10.06,0,0,0-4.2.75,33.77,33.77,0,0,0-13.49,10.13c-5.79,6.86-10,14.73-13.91,22.76A100.14,100.14,0,0,0,191.22,308.66Zm223-24.2a29.51,29.51,0,0,0-1.22-7.91c-.28-1.05-.66-1-1.38-.32a78.8,78.8,0,0,0-7,7.3A67.13,67.13,0,0,0,391.26,310a6.56,6.56,0,0,0-.16,2.75c.16,1,.59,1.58,1.79,1.12A36.55,36.55,0,0,0,406,305.69C411.77,299.84,414.13,292.57,414.24,284.46ZM339.39,300.2a8.4,8.4,0,0,0-.65.6,305.06,305.06,0,0,1-22.41,26.55c-1.26,1.35-2.47,2.75-3.69,4.13-.21.24-.43.54-.28.88s.6.4,1,.38a7.14,7.14,0,0,0,2.26-.6c3.47-1.42,6.36-3.75,9.23-6.06,5.61-4.52,10.39-9.7,13-16.6A28,28,0,0,0,339.39,300.2Z"/></g></g></g></svg>