<svg xmlns="http://www.w3.org/2000/svg" viewBox="0 0 361 428"><defs><style>.cls-1{fill:#bcbabb;}.cls-2{fill:#f58023;}</style></defs><title>Asset 7</title><g id="Layer_2" data-name="Layer 2"><g id="logos"><g id="Stackoverflow"><path class="cls-1" d="M171.12,428Q86.55,428,2,428c-1.49,0-2-.38-2-1.91Q.06,352,0,277.84c0-1.81.71-2.25,2.37-2.24,10.76,0,21.53,0,32.3,0,2.82,0,2.83,0,2.83,2.81V387.63c0,2.82,0,2.83,2.77,2.83H301.43c.61,0,1.21,0,1.82,0,1.46,0,2.1-.69,2.05-2.12,0-.66,0-1.33,0-2V279c0-.67,0-1.33,0-2a1.2,1.2,0,0,1,1.36-1.32l1.46,0h31.94c2.65,0,2.67,0,2.67,2.59V425.38c0,2.58,0,2.59-2.86,2.59Z"/><path class="cls-2" d="M323.39,183.15a2.12,2.12,0,0,1-.71,1.28q-4,4.83-8,9.65c-4.78,5.77-9.61,11.5-14.34,17.31-.93,1.14-1.62,1.18-2.68.29q-9-7.52-17.95-15Q267.28,186.31,254.81,176l-17.41-14.5-21.68-18.13q-13.69-11.45-27.39-22.9l-21.85-18.24c-4.27-3.56-8.52-7.14-12.82-10.65-1.19-1-1.13-1.72-.19-2.83,4.14-4.89,8.23-9.82,12.32-14.75,3.17-3.81,6.27-7.67,9.48-11.45,1.57-1.85,1.76-1.81,3.63-.25,3.11,2.59,6.18,5.23,9.3,7.81,6.61,5.47,13.37,10.77,19.84,16.39s13.22,11.14,19.83,16.71c8.08,6.8,16.28,13.47,24.4,20.23,5.43,4.53,10.78,9.17,16.21,13.69,9.14,7.62,18.34,15.16,27.49,22.78,6.77,5.64,13.49,11.37,20.25,17,1.85,1.55,3.77,3,5.64,4.54A4.24,4.24,0,0,1,323.39,183.15Z"/><path class="cls-2" d="M361,153.05a1.9,1.9,0,0,1-.91,1.21Q346,164.67,332,175.09c-1.23.92-1.88.9-2.86-.46-3.9-5.39-8-10.64-11.94-16-5.4-7.28-10.72-14.62-16.13-21.89-6.86-9.2-13.8-18.35-20.64-27.56-7.07-9.51-14-19.08-21.09-28.6-6.66-9-13.37-17.92-20-26.9Q231,42.51,222.65,31.27c-1.83-2.47-3.62-5-5.47-7.45-.63-.85-.61-1.43.3-2.1C222.69,17.89,227.86,14,233,10.14,237.3,7,241.57,3.8,245.78.55c1-.8,1.58-.75,2.33.27q12.81,17.37,25.66,34.69,10.49,14.13,21,28.26,12.54,16.87,25.1,33.73c5.64,7.55,11.37,15,17,22.62,7.92,10.67,15.77,21.39,23.65,32.09C360.69,152.5,360.86,152.82,361,153.05Z"/><path class="cls-2" d="M121.36,140.67l.69.32q20.36,9.56,40.71,19.09,24.48,11.43,49,22.78,15.69,7.3,31.37,14.66,18.48,8.64,36.95,17.28c4,1.86,8,3.72,12,5.51,1.49.67,1.69,1.35,1,2.92-4.45,9.4-8.74,18.88-13.1,28.33q-.79,1.73-1.65,3.42a1.2,1.2,0,0,1-1.78.67c-1.69-.8-3.41-1.55-5.1-2.34q-29.84-13.89-59.67-27.79c-10.19-4.76-20.35-9.57-30.54-14.33q-22.26-10.42-44.53-20.79c-10-4.64-20-9.2-30-13.79-2.22-1-2.34-1.21-1.25-3.55q6.39-13.84,12.84-27.65c.59-1.26,1.16-2.53,1.76-3.78C120.28,141.14,120.53,140.62,121.36,140.67Z"/><path class="cls-2" d="M264.83,304c-2.21-.47-4.8-1-7.39-1.57-6.73-1.41-13.47-2.79-20.19-4.21-7.32-1.54-14.62-3.13-21.94-4.67-7.67-1.61-15.35-3.16-23-4.78-7.31-1.54-14.61-3.15-21.92-4.7-4.25-.89-8.53-1.68-12.78-2.57-6-1.25-11.91-2.56-17.87-3.82-5.49-1.16-11-2.28-16.47-3.45-6.14-1.3-12.27-2.66-18.42-3.95C99.4,269.1,94,268,88.52,266.92c-2.48-.51-5-1.06-7.43-1.6-1.11-.23-1.36-.75-1.1-1.94,1.4-6.49,2.62-13,4-19.5,1.07-5.08,2.27-10.12,3.35-15.2.24-1.09.45-1.45,1.75-1.17,11.26,2.46,22.55,4.82,33.83,7.19,7.54,1.58,15.1,3.08,22.65,4.67,8.55,1.8,17.1,3.68,25.65,5.49,6.38,1.34,12.77,2.6,19.15,3.93,5.19,1.09,10.36,2.28,15.55,3.37,6.37,1.33,12.76,2.57,19.13,3.9,4.07.85,8.12,1.82,12.18,2.68q8.92,1.9,17.88,3.75l18.26,3.77c1,.2,1.32.64,1.07,1.79-1.86,8.62-3.62,17.26-5.44,25.9-.62,2.95-1.32,5.88-1.94,8.83C266.83,303.84,266.21,304.18,264.83,304Z"/><path class="cls-2" d="M171.47,313.42H264c2.95,0,2.95,0,2.95,2.85v33.06c0,2.64,0,2.69-2.58,2.69h-186c-2.41,0-2.51-.09-2.51-2.41q0-16.89,0-33.78c0-2.32.09-2.41,2.5-2.41Z"/></g></g></g></svg>