<svg xmlns="http://www.w3.org/2000/svg" viewBox="0 0 499.51 431.74"><defs><style>.cls-1{fill:#adadad;}.cls-2{fill:#656565;}.cls-3{fill:#41b883;}.cls-4{fill:#34495e;}</style></defs><title>Asset 18</title><g id="Layer_2" data-name="Layer 2"><g id="logos"><g id="Vue"><path class="cls-1" d="M.35.53.18.55,0,.52C.46-.35,1.26.13,1.87.13q49,0,98,0a.69.69,0,0,1-.11.76c-1.14.93-2.51.66-3.8.66-12.34,0-24.68,0-37,0q-27,0-54.08,0C3.32,1.54,1.68,1.72.35.53Z"/><path class="cls-1" d="M499.51.11l-.38.42c-1.26,1.09-2.8,1-4.3,1q-16.44,0-32.87,0-29,0-58,0c-1.42,0-2.93.33-4.21-.65a.71.71,0,0,1-.12-.77Z"/><path class="cls-2" d="M99.9.52V.11h92.41l-.09.43a2.1,2.1,0,0,1-1.95.94c-.77.07-1.53.07-2.29.07H104.84A11.88,11.88,0,0,1,100.53,1,1.43,1.43,0,0,1,99.9.52Z"/><path class="cls-2" d="M399.6.11a2.77,2.77,0,0,0,0,.41A1.46,1.46,0,0,1,399,1a10.89,10.89,0,0,1-3.45.51q-42.51,0-85,0c-1.13,0-2.41.24-3.2-1L307.2.11Z"/><path class="cls-3" d="M399.19.52h99.94c-3.77,6.62-7.5,13.27-11.31,19.86q-59.6,103.17-119.21,206.32Q310,328.17,251.38,429.62c-1.63,2.82-1.64,2.82-3.27,0L81.46,141.2Q41.36,71.8,1.26,2.39C.92,1.8.66,1.15.35.53h99.94C103,2.18,104,5.17,105.41,7.7c10.29,17.81,20.64,35.59,30.9,53.42q16,27.93,32.21,55.79,15.73,27.26,31.52,54.51,16.89,29.24,33.76,58.48,7,12.07,13.94,24.11c.28.48.57,1,.89,1.41.91,1.31,1.4,1.34,2.25,0,2-3.18,3.8-6.45,5.66-9.69,8.7-15.14,17.48-30.23,26.2-45.35q15.25-26.46,30.54-52.9,14.27-24.65,28.5-49.3Q357.89,70.27,374,42.37c7.64-13.26,15.34-26.49,23-39.76A7.9,7.9,0,0,1,399.19.52Z"/><path class="cls-4" d="M399.19.52c-3,6.08-6.65,11.83-10,17.71q-26.88,46.65-53.85,93.25-21.94,38-43.91,76-20,34.65-40,69.31c-.07.12-.12.25-.2.37-.44.59-.58,1.63-1.43,1.62s-1-1-1.41-1.63q-33.5-58-67-115.92Q146,80.07,110.75,19,106,10.67,101.16,2.4c-.34-.6-.58-1.25-.87-1.88l91.93,0q12,20.67,24,41.34,16.19,28,32.34,55.94c1.21,2.1,1.23,2.1,2.45,0L306,2.65c.41-.72.87-1.41,1.31-2.11Z"/></g></g></g></svg>